<?xml version="1.0" encoding="UTF-8" standalone="no"?>
<svg
   xmlns:dc="http://purl.org/dc/elements/1.1/"
   xmlns:cc="http://creativecommons.org/ns#"
   xmlns:rdf="http://www.w3.org/1999/02/22-rdf-syntax-ns#"
   xmlns:svg="http://www.w3.org/2000/svg"
   xmlns="http://www.w3.org/2000/svg"
   xmlns:sodipodi="http://sodipodi.sourceforge.net/DTD/sodipodi-0.dtd"
   xmlns:inkscape="http://www.inkscape.org/namespaces/inkscape"
   height="380"
   style="zoom: 1;"
   cursor="default"
   id="SvgjsSvg1006"
   width="180"
   version="1.1"
   sodipodi:docname="MixTape.svg"
   inkscape:version="0.92.2 5c3e80d, 2017-08-06">
  <metadata
     id="metadata140">
    <rdf:RDF>
      <cc:Work
         rdf:about="">
        <dc:format>image/svg+xml</dc:format>
        <dc:type
           rdf:resource="http://purl.org/dc/dcmitype/StillImage" />
      </cc:Work>
    </rdf:RDF>
  </metadata>
  <defs
     id="defs138" />
  <sodipodi:namedview
     pagecolor="#ffffff"
     bordercolor="#666666"
     borderopacity="1"
     objecttolerance="10"
     gridtolerance="10"
     guidetolerance="10"
     inkscape:pageopacity="0"
     inkscape:pageshadow="2"
     inkscape:window-width="740"
     inkscape:window-height="480"
     id="namedview136"
     showgrid="false"
     inkscape:zoom="0.62105263"
     inkscape:cx="90"
     inkscape:cy="190"
     inkscape:window-x="0"
     inkscape:window-y="0"
     inkscape:window-maximized="0"
     inkscape:current-layer="SvgjsSvg1006" />
  <path
     d="M0,0 h180 v380 H0  z "
     id="SvgjsRect1008"
     fill="#f0f0f0" />
  <g
     aria-label="Mix Tape"
     style="color:#ffffff;font-size:16px;font-family:ImpactLabel;text-anchor:middle;stroke:none;stroke-width:1px;text-rendering:geometricPrecision"
     id="text5">
    <path
       d="m 61.69825,20.184 h -10.112 V 0.632 h 10.112 z m -2.32,-13.008 q -0.16,0.032 -0.352,0.24 -0.176,0.192 -0.368,0.48 -0.176,0.288 -0.352,0.624 -0.176,0.32 -0.352,0.528 -0.16,0.24 -0.368,0.624 -0.192,0.384 -0.4,0.768 -0.208,0.368 -0.448,0.704 -0.224,0.336 -0.432,0.464 -0.224,0.16 -0.352,0.016 -0.128,-0.144 -0.208,-0.368 -0.08,-0.224 -0.128,-0.448 -0.032,-0.24 -0.048,-0.288 -0.064,-0.096 -0.24,-0.4 -0.176,-0.304 -0.512,-0.608 -0.16,-0.176 -0.432,-0.528 -0.272,-0.368 -0.544,-0.736 -0.272,-0.368 -0.512,-0.624 -0.224,-0.256 -0.304,-0.16 -0.096,0.08 -0.064,0.256 0.032,0.16 0.112,0.352 0.08,0.176 0.16,0.336 0.096,0.16 0.096,0.224 0,0.064 -0.016,0.24 -0.016,0.176 -0.048,0.416 -0.032,0.224 -0.048,0.448 -0.016,0.224 -0.064,0.336 -0.032,0.112 -0.048,0.704 -0.016,0.592 -0.048,1.28 -0.016,0.672 -0.032,1.248 0,0.576 0,0.656 -0.032,0.16 -0.016,0.24 0.032,0.08 0.4,0.192 0.176,0.064 0.32,-0.032 0.16,-0.112 0.256,-0.288 0.096,-0.176 0.176,-0.336 0.08,-0.16 0.096,-0.256 0,-0.064 0,-0.544 0.016,-0.496 0,-1.04 0,-0.56 -0.032,-1.008 -0.032,-0.448 -0.08,-0.448 -0.144,0.016 -0.24,0.304 -0.096,0.288 -0.208,0.496 -0.064,0.128 -0.048,0.544 0.016,0.4 0.016,0.864 0,0.464 0,0.848 0,0.384 -0.064,0.4 -0.032,0.016 -0.064,-0.496 -0.032,-0.528 -0.08,-1.168 -0.032,-0.64 -0.048,-1.216 0,-0.576 -0.016,-0.72 -0.064,-0.24 -0.064,-0.656 0,-0.416 0.032,-0.592 0.048,-0.144 0.192,-0.176 0.144,-0.032 0.288,0.032 0.064,0.016 0.224,0.24 0.176,0.224 0.352,0.528 0.192,0.288 0.384,0.624 0.192,0.32 0.352,0.528 0.32,0.464 0.608,1.024 0.304,0.544 0.496,0.704 0.192,0.112 0.416,-0.032 0.24,-0.16 0.336,-0.144 0.08,0.016 0.032,0.24 -0.032,0.208 0.048,0.208 0.08,0 0.112,-0.08 0.048,-0.08 0.128,-0.224 0.048,-0.064 0.144,-0.192 0.096,-0.144 0.208,-0.272 l 0.272,-0.352 -0.384,0.48 0.672,-1.28 -0.96,1.424 0.912,-1.712 -0.144,-0.096 v -0.512 q 0,-0.128 0.032,-0.32 0.048,-0.208 0.096,-0.272 0.064,-0.048 0.272,-0.32 0.208,-0.288 0.288,-0.288 0.096,-0.048 0.128,0.08 0.048,0.112 0.144,0.336 0.08,0.24 0.128,0.88 0.064,0.624 0,1.424 0,0.432 -0.032,0.896 -0.016,0.448 -0.016,0.864 0,0.416 0,0.704 0,0.288 0.048,0.4 0.016,0.128 0.128,0.176 0.128,0.032 0.224,0.032 0.096,0 0.192,0 0.112,0 0.128,0.032 0.064,0.096 0.064,0.144 0,0.048 0.08,-0.016 0.032,0 0.208,-0.208 0.032,-0.112 0.128,-0.192 -0.032,0.016 -0.048,0.08 -0.064,0.112 -0.08,0.128 -0.064,0.032 -0.16,0.032 h -0.048 v -0.112 q 0,-0.048 0.048,-0.336 0.064,-0.192 -0.096,-0.56 -0.144,-0.368 -0.144,-0.672 0,-0.16 0.016,-0.912 0.016,-0.768 0.016,-1.648 0.016,-0.88 0.032,-1.632 0.032,-0.768 0.032,-0.912 0,-0.24 0.192,-0.4 0.08,-0.08 0.192,-0.128 0.112,-0.08 0.032,-0.128 -0.08,-0.048 -0.24,-0.048 -0.144,0 -0.336,0.016 -0.192,0.016 -0.32,0.048 z m -3.12,3.12 q 0.048,0.032 -0.016,-0.048 -0.048,-0.096 -0.096,-0.192 -0.08,-0.112 -0.192,-0.288 0,0.128 0.048,0.24 0.064,0.288 0.256,0.288 z m -0.016,-0.576 q -0.352,-0.544 -0.656,-1.024 -0.256,-0.4 -0.464,-0.752 -0.208,-0.368 -0.272,-0.48 -0.032,-0.096 0.128,0.288 0.176,0.384 0.432,0.864 0.256,0.48 0.496,0.864 0.24,0.368 0.336,0.24 z m 4.128,-2.544 q -0.048,1.808 -0.08,3.264 0,0.608 0,1.216 0,0.608 0.016,1.104 0.016,0.48 0.032,0.816 0.016,0.32 0.064,0.4 0.032,0.08 0.048,-0.208 0.016,-0.288 0.016,-0.752 0,-0.464 -0.016,-1.088 -0.016,-0.624 -0.016,-1.264 -0.032,-1.52 -0.064,-3.488 z"
       style="color:#ffffff;font-size:16px;font-family:ImpactLabel;text-anchor:middle;stroke:none;stroke-width:1px;text-rendering:geometricPrecision"
       id="path947" />
    <path
       d="M 71.433,20.184 H 61.305 V 0.632 H 71.433 Z M 67.609,6.6 67.657,6.632 q 0.048,0.048 0.16,0 0.128,-0.032 0.128,-0.08 0,-0.064 -0.16,-0.112 Q 67.641,6.392 67.529,6.504 67.433,6.6 67.337,6.632 67.241,6.696 67.145,6.84 67.049,6.968 66.617,7.048 66.201,7.096 65.961,7.08 65.721,7.064 65.497,7.048 q -0.096,0 -0.272,-0.016 -0.176,-0.032 -0.32,0 -0.144,0.016 -0.272,0.112 -0.128,0.096 -0.144,0.304 -0.048,0.208 0.08,0.288 0.144,0.08 0.336,0.096 0.208,0 0.384,0 0.176,0 0.24,0.048 0.272,0.352 0.272,1.2 0,0.208 0.016,0.864 0.016,0.656 0.032,1.408 0.032,0.752 0.032,1.376 0,0.624 0,0.704 -0.048,0.192 -0.112,0.368 -0.048,0.16 -0.224,0.224 -0.144,0.048 -0.256,0 -0.096,-0.064 -0.24,-0.048 -0.064,0 -0.16,0.128 -0.096,0.112 -0.176,0.24 -0.08,0.112 -0.144,0.24 -0.064,0.128 0,0.16 0.08,0.08 0.528,0.048 0.448,-0.048 0.736,-0.048 0.256,0 0.56,0.032 0.304,0.016 0.544,0.048 0.224,0.064 0.496,0.064 0.288,-0.016 0.416,-0.24 0.128,-0.192 0.176,-0.432 0.064,-0.24 -0.048,-0.352 -0.16,-0.16 -0.432,-0.096 -0.08,0.016 -0.224,-0.096 -0.144,-0.112 -0.224,-0.112 -0.112,0 -0.288,0.144 -0.16,0.144 -0.24,0.128 -0.064,0 -0.08,-0.176 0,-0.176 -0.016,-0.368 -0.016,-0.208 -0.016,-0.4 0,-0.208 0,-0.304 V 8.488 q 0,-0.24 0,-0.352 0,-0.112 0.096,-0.176 0.208,-0.08 0.416,0 0.08,0.048 0.336,0.112 0.272,0.048 0.416,-0.112 0.128,-0.112 0.256,-0.256 0.144,-0.16 0.08,-0.32 Q 67.977,7.064 67.705,6.968 67.577,6.92 67.497,6.872 67.433,6.808 67.513,6.76 q 0.032,-0.064 0.32,-0.064 0.304,-0.016 0.368,0.224 0.016,0.144 0.016,0.256 0,0.112 0,0.208 v 0.192 q 0.048,-0.224 0.048,-0.4 0,-0.128 -0.032,-0.272 Q 68.201,6.76 68.137,6.696 68.089,6.632 67.993,6.632 q -0.096,0 -0.176,-0.016 -0.112,0 -0.208,-0.016 z M 65.465,6.376 67.785,6.44 Q 67.225,6.392 66.745,6.376 66.345,6.328 65.961,6.328 65.593,6.312 65.465,6.376 Z m 1.568,2.368 0.064,4.448 0.128,-0.032 q -0.048,-0.048 -0.048,-0.08 0,-0.016 -0.016,-0.048 0,-0.032 0,-0.08 -0.032,-0.08 -0.048,-0.752 -0.016,-0.672 -0.048,-1.44 z m 0.24,4.544 q 0,0.064 0.08,0.096 0.08,0.016 0.208,0.016 0.144,0 0.24,0.016 0.112,0.016 0.144,0.016 0.064,0.048 0.192,0.192 0.128,0.144 0.128,0.24 0,0.112 0.016,0.256 0.032,0.128 0,0.048 -0.016,-0.032 -0.016,-0.352 0.016,-0.336 -0.256,-0.464 -0.272,-0.16 -0.48,-0.208 -0.192,-0.064 -0.256,0.144 z"
       style="color:#ffffff;font-size:16px;font-family:ImpactLabel;text-anchor:middle;stroke:none;stroke-width:1px;text-rendering:geometricPrecision"
       id="path949" />
    <path
       d="M 81.042,20.184 H 70.898 V 0.632 H 81.042 Z M 78.786,6.888 Q 78.85,6.648 78.674,6.472 78.514,6.28 78.466,6.184 78.386,6.104 78.386,6.056 V 5.976 L 78.274,6.008 Q 78.162,6.072 78.162,6.152 78.098,6.184 77.906,6.392 77.73,6.584 77.634,6.728 77.586,6.824 77.426,7.08 77.282,7.336 77.09,7.672 76.898,7.992 76.706,8.296 76.53,8.6 76.434,8.76 76.242,9.064 76.066,9.304 75.89,9.544 75.858,9.672 l -0.096,0.176 q 0,-0.016 -0.016,-0.064 Q 75.698,9.768 75.65,9.656 75.57,9.592 75.426,9.448 75.298,9.288 75.378,9.24 75.442,9.176 75.49,9.208 75.538,9.24 75.57,9.112 75.586,9 75.506,8.888 75.442,8.76 75.298,8.632 75.218,8.52 74.994,8.312 74.786,8.104 74.61,7.8 74.482,7.512 74.29,7.128 74.114,6.728 74.034,6.552 74.002,6.392 73.954,6.344 73.906,6.296 73.826,6.216 73.73,6.152 73.73,6.184 v 0.064 q -0.208,0.096 -0.368,0.208 -0.304,0.24 -0.24,0.56 0.032,0.16 0.208,0.448 0.192,0.272 0.432,0.576 0.24,0.288 0.448,0.576 0.208,0.272 0.336,0.448 0.256,0.32 0.576,0.688 0.336,0.352 0.384,0.432 l 0.08,0.128 q -0.016,0.064 -0.08,0.176 -0.064,0.144 -0.16,0.24 -0.064,0.064 -0.224,0.272 -0.16,0.208 -0.256,0.288 -0.064,0.032 -0.224,0.224 -0.144,0.192 -0.336,0.432 -0.192,0.24 -0.368,0.48 -0.176,0.24 -0.272,0.368 -0.144,0.24 -0.32,0.48 -0.176,0.224 -0.128,0.448 0.016,0.208 0.272,0.384 0.272,0.16 0.512,-0.08 0.208,-0.24 0.288,-0.56 0.096,-0.32 0.432,-0.752 0.368,-0.464 0.608,-0.768 0.24,-0.304 0.304,-0.432 0.016,-0.128 0.032,-0.144 0.016,-0.016 -0.128,-0.08 -0.256,-0.032 -0.16,-0.176 0.064,-0.032 0.128,-0.16 0.064,-0.144 0.144,-0.16 0.048,0 0.08,-0.032 0.048,-0.048 0.128,-0.128 0.032,-0.032 0.128,-0.096 v 0.24 q 0,0.256 0.064,0.336 0.016,0.08 0.16,0.304 0.144,0.224 0.32,0.496 0.176,0.256 0.336,0.512 0.16,0.24 0.256,0.368 0.192,0.24 0.352,0.512 0.16,0.272 0.256,0.416 0.08,0.144 0.16,0.272 0.096,0.128 0.208,0.192 0.112,0.08 0.272,0.08 0.176,0 0.32,-0.144 0.304,-0.192 0.256,-0.512 Q 78.882,13.448 78.53,13.16 78.178,12.856 77.97,12.552 77.858,12.424 77.634,12.136 77.426,11.832 77.186,11.544 76.962,11.256 76.786,11 76.61,10.728 76.562,10.68 l -0.096,-0.144 q 0.032,-0.032 0.064,-0.096 0.016,-0.016 0.016,-0.032 0.016,-0.032 0.096,-0.064 0.016,-0.016 0.048,-0.016 0.032,-0.016 0.048,-0.064 0.032,-0.016 0.064,-0.016 -0.032,-0.032 -0.08,-0.064 -0.112,-0.048 -0.176,0 -0.048,0.064 -0.176,0.128 -0.048,0.016 -0.064,0.016 l -0.128,-0.144 q 0.064,-0.032 0.144,-0.112 0.048,-0.048 0.128,-0.128 0.096,-0.08 0.192,-0.16 0.08,-0.064 0.224,-0.272 0.144,-0.208 0.272,-0.448 0.144,-0.24 0.256,-0.448 0.128,-0.208 0.224,-0.32 0.144,-0.208 0.48,-0.528 0.352,-0.336 0.448,-0.448 0.208,-0.24 0.24,-0.432 z m 0.064,0.528 q -0.496,0.672 -0.864,1.184 -0.352,0.48 -0.608,0.912 -0.256,0.432 -0.336,0.464 -0.08,0.16 -0.016,0.304 0.064,0.128 0.112,0.224 0.048,0.064 0.24,0.336 0.208,0.272 0.432,0.592 0.24,0.32 0.4,0.56 0.176,0.24 0.144,0.144 Q 78.29,12.056 78.146,11.848 78.002,11.64 77.842,11.416 77.698,11.192 77.57,11 77.442,10.792 77.442,10.728 77.394,10.616 77.362,10.504 77.33,10.376 77.282,10.328 l -0.096,-0.112 q -0.048,-0.032 -0.064,-0.032 z m -3.264,0.992 q 0,0.064 0.048,-0.112 Q 75.698,8.104 75.65,8.04 75.634,8.024 75.49,7.784 75.346,7.544 75.17,7.256 74.978,6.952 74.69,6.552 q 0.288,0.4 0.48,0.72 0.176,0.336 0.32,0.64 0.144,0.304 0.096,0.496 z m 0,3.76 q -0.304,0.544 -0.592,0.96 -0.208,0.368 -0.448,0.688 -0.24,0.304 -0.304,0.368 -0.128,0.112 -0.24,0.112 -0.064,0 -0.112,-0.016 l -0.224,0.32 q 0.096,-0.016 0.224,-0.032 0.192,-0.064 0.256,-0.16 0.048,-0.016 0.288,-0.336 0.24,-0.336 0.496,-0.704 0.272,-0.368 0.48,-0.72 0.224,-0.368 0.176,-0.48 z m 3.2,2.24 q 0,-0.016 -0.016,-0.016 -0.016,0 -0.048,0.064 l -0.064,0.112 q 0.032,0.016 0.064,0.016 0.032,0 0.064,-0.176 z"
       style="color:#ffffff;font-size:16px;font-family:ImpactLabel;text-anchor:middle;stroke:none;stroke-width:1px;text-rendering:geometricPrecision"
       id="path951" />
    <path
       d="M 90.699,20.184 H 80.555 V 0.632 h 10.144 z"
       style="color:#ffffff;font-size:16px;font-family:ImpactLabel;text-anchor:middle;stroke:none;stroke-width:1px;text-rendering:geometricPrecision"
       id="path953" />
    <path
       d="m 100.13125,20.184 h -10.128 V 0.632 h 10.128 z m -4.88,-13.744 q -0.16,0 -0.592,0 -0.432,-0.016 -0.912,-0.032 -0.48,-0.032 -0.88,-0.048 -0.384,-0.032 -0.464,-0.032 -0.176,0 -0.224,0.096 -0.048,0.08 -0.064,0.256 0,0.192 0.24,0.432 0.24,0.24 0.32,0.288 0.048,0.048 0.208,0.064 0.16,0 0.336,0.016 0.192,0 0.352,0 0.16,0 0.192,-0.016 0.128,-0.064 0.176,-0.144 0.064,-0.08 0.352,-0.08 0.112,0 0.176,0.128 0.064,0.112 0.096,0.304 0.048,0.176 0.064,0.384 0.016,0.192 0.048,0.336 0.032,0.144 0.016,0.752 -0.016,0.608 -0.048,1.328 -0.032,0.704 -0.08,1.424 -0.032,0.72 -0.064,1.056 -0.08,0.704 0.064,1.008 0.16,0.304 0.288,0.352 0.128,0.032 0.32,-0.064 0.208,-0.112 0.288,-0.208 0.064,-0.064 0.032,-0.192 -0.032,-0.144 -0.096,-0.304 l -0.112,-0.464 v -5.6 h 0.096 q 0.064,0 0.096,0 0.048,-0.016 0.112,-0.016 0.16,0.016 0.224,0.064 0.064,0.048 0.256,0.048 0.208,0 0.224,-0.016 0.016,-0.016 0.144,-0.08 0.16,-0.016 0.368,-0.048 0.208,-0.032 0.352,0.096 0.144,0.112 0.208,0.08 0.08,-0.032 0.336,-0.064 0.288,-0.064 0.384,-0.304 0.096,-0.24 -0.096,-0.8 -0.064,-0.24 -0.24,-0.304 -0.176,-0.08 -0.368,-0.048 -0.176,0.032 -0.336,0.128 -0.144,0.08 -0.224,0.096 -0.144,0.064 -0.4,0.064 -0.256,0 -0.416,0 -0.128,0.016 -0.24,0.048 -0.096,0.016 -0.24,0.016 -0.144,0 -0.272,0 z m 0.544,1.376 q 0,1.584 0.032,2.816 0,0.56 0.016,1.088 0.016,0.512 0.016,0.944 0.016,0.416 0.016,0.704 0,0.288 0,0.304 0,0.16 -0.048,0.304 -0.032,0.096 -0.064,0.128 0.096,0 0.16,-0.128 0.048,-0.064 0.08,-0.272 0.032,-0.208 0,-0.592 0,-0.4 -0.016,-1.216 -0.016,-0.832 -0.016,-1.664 0,-0.832 0,-1.472 0,-0.64 0,-0.688 0,-0.128 0.144,-0.128 0.048,0 0.288,0 0.24,0 0.512,-0.032 0.288,-0.032 0.528,-0.048 0.24,-0.016 0.32,-0.048 0.176,-0.128 0.288,-0.24 0.096,-0.096 0.128,-0.176 -0.064,0.128 -0.192,0.192 -0.24,0.224 -0.528,0.224 -0.16,0 -0.432,-0.016 -0.272,-0.032 -0.544,-0.032 -0.256,0 -0.464,0 -0.192,0 -0.224,0.048 z"
       style="color:#ffffff;font-size:16px;font-family:ImpactLabel;text-anchor:middle;stroke:none;stroke-width:1px;text-rendering:geometricPrecision"
       id="path955" />
    <path
       d="m 109.36375,20.184 h -10.096 V 0.632 h 10.096 z m -7.648,-5.616 q 0.096,0.032 0.208,0.112 0.128,0.08 0.256,-0.144 0.128,-0.192 0.208,-0.48 0.096,-0.304 0.112,-0.432 0.048,-0.16 0,-0.272 -0.032,-0.128 0.096,-0.16 0.144,-0.032 0.208,0.112 0.08,0.144 0.272,0.144 0.176,0 0.4,-0.08 0.224,-0.096 0.736,-0.096 0.528,0 0.752,0.048 0.24,0.048 0.432,-0.064 0.192,-0.096 0.368,-0.224 0.192,-0.128 0.272,-0.064 0.016,0.016 0.096,0.16 0.096,0.128 0.16,0.272 0.08,0.128 0.144,0.288 0.08,0.16 0.08,0.24 0.048,0.16 0.144,0.416 0.096,0.256 0.4,0.288 0.32,0.064 0.416,-0.032 0.112,-0.096 0.144,-0.352 0.08,-0.208 -0.128,-0.384 -0.208,-0.192 -0.288,-0.4 -0.048,-0.096 -0.208,-0.48 -0.144,-0.384 -0.336,-0.832 -0.192,-0.464 -0.368,-0.912 -0.16,-0.464 -0.256,-0.704 -0.08,-0.272 -0.256,-0.672 -0.16,-0.416 -0.336,-0.8 -0.16,-0.4 -0.304,-0.72 -0.128,-0.336 -0.16,-0.432 -0.048,-0.08 -0.064,-0.272 -0.016,-0.192 -0.064,-0.4 -0.048,-0.208 -0.112,-0.4 -0.048,-0.192 -0.144,-0.288 -0.096,-0.08 -0.208,0 -0.112,0.08 -0.208,0.208 -0.096,0.112 -0.176,0.256 -0.064,0.128 -0.096,0.224 -0.016,0.192 0.048,0.336 0.064,0.144 0.064,0.256 0,0.096 -0.096,0.24 -0.096,0.128 -0.16,0.304 -0.064,0.144 -0.096,0.288 -0.016,0.128 -0.016,0.24 0,0.128 -0.288,0.688 -0.288,0.56 -0.496,1.168 -0.192,0.56 -0.208,0.768 -0.016,0.208 -0.064,0.368 -0.016,0.128 -0.112,0.4 -0.08,0.272 -0.224,0.496 -0.064,0.16 -0.224,0.416 -0.144,0.256 -0.272,0.56 -0.128,0.288 -0.16,0.528 -0.032,0.24 0.112,0.272 z m 3.984,-3.328 q 0.144,0.272 0.176,0.56 0.048,0.272 -0.016,0.496 -0.016,0.096 -0.128,0.112 -0.112,0.016 -0.288,-0.016 -0.16,-0.032 -0.352,-0.08 -0.176,-0.048 -0.288,-0.048 -0.48,0 -0.656,-0.08 -0.064,-0.064 -0.208,0.016 -0.144,0.064 -0.448,0.16 -0.32,0.112 -0.432,0.096 -0.112,-0.032 -0.224,-0.08 -0.064,-0.016 -0.016,-0.128 0.048,-0.128 0.144,-0.272 0.096,-0.144 0.192,-0.304 0.096,-0.176 0.128,-0.32 0.032,-0.144 0.144,-0.464 0.128,-0.336 0.256,-0.672 0.144,-0.352 0.24,-0.608 0.096,-0.272 0.096,-0.288 0,-0.064 -0.096,-0.112 -0.08,-0.064 -0.16,-0.112 -0.048,-0.016 0.064,-0.128 0.112,-0.112 0.208,-0.24 0.112,-0.16 0.144,-0.256 0.032,-0.096 0.176,-0.048 0.064,0.032 0.256,0.416 0.192,0.384 0.416,0.88 0.24,0.496 0.432,0.96 0.192,0.448 0.24,0.56 z m -1.968,0.208 0.112,-0.256 q 0.064,-0.128 0.112,-0.24 0.048,-0.112 0.064,-0.176 0.096,-0.128 0.112,-0.32 0.016,-0.128 0.064,-0.288 -0.08,0.064 -0.176,0.288 -0.08,0.208 -0.128,0.448 -0.096,0.288 -0.16,0.544 z m 0.816,0.576 q -0.032,-0.112 -0.096,-0.24 -0.064,-0.128 -0.176,-0.096 -0.08,0.032 -0.192,0.032 h -0.128 z m -1.488,1.728 2.224,-0.08 q -0.192,-0.048 -0.544,-0.032 -0.352,0 -0.736,0.032 -0.464,0.016 -0.944,0.08 z m -0.112,0.128 q -0.064,0.16 -0.096,0.272 -0.112,0.272 -0.192,0.368 -0.064,0.048 -0.112,0.096 -0.048,0.032 -0.064,0.096 -0.048,0.048 -0.048,0.096 0.208,-0.176 0.304,-0.304 0.24,-0.336 0.208,-0.624 z m 4.752,-0.896 q 0.048,0.064 -0.032,-0.16 -0.08,-0.224 -0.24,-0.608 -0.144,-0.384 -0.368,-0.928 -0.208,-0.56 -0.432,-1.136 -0.544,-1.36 -1.28,-3.088 0.624,1.632 1.12,2.912 0.24,0.576 0.448,1.104 0.208,0.528 0.368,0.944 0.16,0.4 0.256,0.672 0.096,0.272 0.16,0.288 z"
       style="color:#ffffff;font-size:16px;font-family:ImpactLabel;text-anchor:middle;stroke:none;stroke-width:1px;text-rendering:geometricPrecision"
       id="path957" />
    <path
       d="m 118.6945,20.184 h -10.128 V 0.632 h 10.128 z m -6.096,-8.992 q 0.128,0.064 0.208,0.064 0.096,0 0.288,-0.064 0.08,-0.016 0.64,0.016 0.56,0.032 1.152,-0.112 0.592,-0.144 1.088,-0.56 0.512,-0.416 0.512,-1.36 0,-0.944 -0.304,-1.472 -0.304,-0.528 -0.704,-0.768 -0.384,-0.256 -0.752,-0.304 -0.368,-0.064 -0.528,-0.064 -0.144,0 -0.512,0 -0.352,0 -0.768,0 -0.416,0 -0.752,0 -0.32,0 -0.4,0.032 -0.128,0.032 -0.224,0.176 -0.08,0.144 -0.08,0.288 0,0.048 -0.032,0.272 -0.016,0.208 -0.048,0.496 -0.016,0.288 -0.032,0.576 0,0.288 0,0.56 0,0.24 0,0.608 0.016,0.352 0.048,0.672 0.032,0.32 0.064,0.592 0.048,0.272 0.048,0.352 0,0.128 -0.048,0.4 -0.032,0.272 -0.08,0.608 -0.032,0.336 -0.08,0.656 -0.032,0.32 -0.064,0.448 -0.064,0.288 0.032,0.576 0.096,0.288 0.496,0.512 0.368,0.224 0.464,0.032 0.096,-0.208 0.144,-0.352 0,-0.128 -0.064,-0.304 -0.064,-0.176 -0.112,-0.272 -0.064,-0.064 -0.128,-0.32 -0.048,-0.256 -0.048,-0.496 0,-0.16 0,-0.4 0,-0.256 0.032,-0.544 0,-0.304 0.032,-0.672 0.048,0.016 0.16,0.048 0.064,0.032 0.16,0.064 0.096,0.016 0.192,0.016 z m -0.352,-2.032 q 0,-0.08 -0.016,-0.32 -0.016,-0.24 -0.032,-0.48 0,-0.24 -0.016,-0.448 0,-0.224 0.016,-0.272 0.048,-0.112 0.08,-0.08 0.048,0.016 0.112,0.016 0.096,0 0.272,0.048 0.192,0.032 0.32,0.032 h 0.832 q 0.064,0 0.24,0 0.176,-0.016 0.352,-0.016 0.192,0 0.384,0.016 0.192,0 0.304,0.064 0.224,0.128 0.4,0.368 0.192,0.24 0.192,0.88 0,0.304 -0.16,0.528 -0.144,0.208 -0.336,0.384 -0.192,0.176 -0.384,0.272 -0.192,0.08 -0.272,0.08 -0.096,0 -0.352,0 -0.24,0 -0.496,-0.048 -0.304,0 -0.64,-0.016 -0.064,0 -0.144,0.016 -0.048,0.048 -0.144,0.064 -0.08,0 -0.144,0.016 -0.304,0.096 -0.432,-0.096 0,-0.224 0.016,-0.416 0.016,-0.176 0.032,-0.32 0.016,-0.16 0.016,-0.272 z m 0.256,-1.232 q -0.048,0.016 0,0.256 0.064,0.24 0.064,0.368 0,0.144 0.016,0.32 0.032,0.16 -0.016,0.288 -0.064,0.16 -0.08,0.224 -0.032,0.064 -0.032,0.096 0.064,-0.016 0.16,-0.128 0.064,-0.064 0.128,-0.192 0.064,-0.128 0.112,-0.256 0.016,-0.304 -0.096,-0.672 -0.096,-0.384 -0.256,-0.304 z m 1.456,0.144 h -0.272 q -0.112,0 -0.176,0.032 -0.064,0.016 -0.032,0.032 0.16,0.096 0.352,0.016 0.08,-0.016 0.128,-0.08 z m 0.064,1.76 -0.496,-0.128 q 0.08,0.08 0.192,0.128 0.16,0.096 0.304,0 z m -1.536,1.6 0.112,0.288 q 0.064,0.112 0.096,0.224 0.032,0.096 0.032,0.16 0,0.048 0.016,0.288 0.016,0.224 0.016,0.48 v 0.672 l 0.048,-1.712 1.072,-0.16 q -0.304,0.048 -0.592,0 -0.224,-0.016 -0.464,-0.064 -0.224,-0.048 -0.336,-0.176 z m 4.32,-1.504 q 0.208,-0.464 0.192,-1.088 -0.016,-0.64 -0.192,-1.152 -0.096,-0.24 -0.24,-0.432 -0.128,-0.192 -0.256,-0.336 -0.144,-0.128 -0.352,-0.24 0.064,0.016 0.112,0.08 0.064,0.048 0.112,0.128 0.064,0.08 0.176,0.16 0.24,0.224 0.4,0.704 0.16,0.48 0.16,0.928 0.048,0.432 -0.144,1.008 -0.176,0.576 -0.416,0.88 -0.128,0.128 -0.32,0.272 -0.176,0.144 -0.384,0.24 -0.208,0.112 -0.448,0.272 0.48,-0.064 0.944,-0.528 0.48,-0.464 0.656,-0.896 z"
       style="color:#ffffff;font-size:16px;font-family:ImpactLabel;text-anchor:middle;stroke:none;stroke-width:1px;text-rendering:geometricPrecision"
       id="path959" />
    <path
       d="M 128.276,20.184 H 118.132 V 0.632 h 10.144 z M 124.26,7.816 q 0.192,0 0.496,0.048 0.32,0.048 0.56,0 0.272,-0.016 0.368,-0.176 0.112,-0.176 0.144,-0.336 0.032,-0.176 -0.112,-0.448 -0.128,-0.272 -0.288,-0.336 -0.112,-0.064 -0.336,-0.016 -0.224,0.032 -0.352,0.112 -0.096,0.048 -0.288,0.08 -0.192,0.032 -0.4,0.064 -0.208,0.032 -0.432,0.048 -0.208,0.016 -0.32,0.016 -0.112,0 -0.464,-0.016 Q 122.5,6.84 122.1,6.824 q -0.4,-0.016 -0.736,0 -0.336,0.016 -0.448,0.064 -0.112,0.08 -0.192,0.352 -0.064,0.272 -0.112,0.624 -0.032,0.336 -0.048,0.656 -0.016,0.304 -0.016,0.48 0,0.176 0.032,0.464 0.032,0.272 0.048,0.528 0.032,0.256 0.048,0.48 0.016,0.224 -0.016,0.304 -0.032,0.128 -0.096,0.464 -0.064,0.32 -0.064,0.608 0,0.128 0.016,0.496 0.032,0.368 0.064,0.768 0.048,0.384 0.08,0.72 0.032,0.32 0.032,0.336 0,0.08 0.112,0.288 0.112,0.208 0.288,0.256 0.08,0 0.528,0.016 0.464,0 1.008,0 0.56,0 1.024,0 0.48,0 0.544,0 0.08,0 0.272,0.048 0.208,0.048 0.416,0.096 0.224,0.032 0.384,0.064 0.16,0.016 0.256,0.016 0.144,0 0.384,-0.16 0.256,-0.176 0.288,-0.368 0,-0.192 -0.064,-0.496 -0.048,-0.32 -0.272,-0.368 -0.192,-0.064 -0.656,0.112 -0.464,0.176 -0.736,0.208 -0.128,0.048 -0.48,0.016 -0.336,-0.032 -0.72,-0.08 -0.384,-0.048 -0.704,-0.08 -0.32,-0.032 -0.416,-0.032 -0.128,0 -0.4,0.08 -0.256,0.064 -0.352,-0.016 -0.112,-0.064 -0.048,-0.256 0.064,-0.208 0.064,-0.272 0,-0.048 -0.016,-0.192 0,-0.16 -0.064,-0.32 -0.032,-0.032 -0.048,-0.288 0,-0.272 0.016,-0.528 0.032,-0.272 0.064,-0.496 0.032,-0.224 0.096,-0.24 0.08,-0.08 0.256,-0.032 0.176,0.048 0.304,-0.016 0.048,0 0.288,-0.016 0.24,-0.016 0.512,-0.016 0.272,0 0.496,0 0.24,0 0.336,0.032 0.128,0.064 0.224,0.112 0.096,0.032 0.4,-0.032 0.336,-0.032 0.4,-0.224 0.064,-0.192 0.08,-0.496 0.048,-0.32 -0.16,-0.384 -0.208,-0.08 -0.352,-0.16 -0.176,-0.032 -0.448,0.08 -0.272,0.096 -0.432,0.128 -0.08,0 -0.272,0 -0.176,0 -0.368,-0.016 -0.176,-0.032 -0.352,-0.048 -0.16,-0.032 -0.24,-0.032 -0.096,0.048 -0.24,0.048 -0.128,0 -0.288,0.016 -0.128,0.032 -0.304,0.032 v -1.04 q 0,-0.4 0,-0.736 0,-0.352 0.032,-0.448 0.736,-0.016 1.36,-0.064 0.528,-0.016 0.992,-0.032 0.464,-0.016 0.576,-0.016 z m -1.04,0.416 h -1.52 q -0.032,0.24 -0.032,0.432 v 0.544 q 0,0.224 -0.016,0.288 -0.048,0.08 -0.064,0.144 0.432,0 0.752,-0.016 0.304,-0.048 0.528,-0.048 0.24,0 0.304,-0.016 0.016,0 -0.128,0 -0.128,0 -0.32,-0.032 -0.176,-0.032 -0.368,-0.064 -0.176,-0.032 -0.208,-0.192 -0.08,-0.256 -0.096,-0.496 -0.016,-0.256 0.08,-0.304 0.048,-0.048 0.208,-0.064 0.176,-0.016 0.368,-0.08 0.224,-0.048 0.512,-0.096 z m 0.848,1.312 0.448,0.304 q -0.128,-0.16 -0.256,-0.224 -0.112,-0.064 -0.192,-0.08 z m -2,2.128 q 0.016,0 0.192,-0.016 0.192,-0.016 0.4,-0.048 0.224,-0.032 0.368,-0.032 0.16,-0.016 0.144,-0.016 -0.08,-0.064 -0.288,-0.032 -0.192,0.016 -0.4,0.048 -0.208,0.032 -0.336,0.08 -0.112,0.032 -0.08,0.016 z m -0.4,-0.192 q 0,0.08 0.016,0.336 0.016,0.24 0.048,0.544 0.032,0.352 0.048,0.736 l 0.352,-0.064 q -0.064,0.096 -0.096,0.096 -0.064,0 -0.08,-0.08 0,-0.08 -0.016,-0.352 -0.048,-0.288 -0.08,-0.496 -0.016,-0.224 -0.08,-0.4 -0.048,-0.16 -0.112,-0.32 z"
       style="color:#ffffff;font-size:16px;font-family:ImpactLabel;text-anchor:middle;stroke:none;stroke-width:1px;text-rendering:geometricPrecision"
       id="path961" />
  </g>
  <!--
  <text id="text7" x="22.5" font-size="10" y="70" font-family="ImpactLabel" text-anchor="middle" text-rendering="geometricPrecision" style="fill:#000000;">IN 1</text>
  <text id="text29" x="22.5" font-size="10" y="120" font-family="ImpactLabel" text-anchor="middle" text-rendering="geometricPrecision" style="fill:#000000; ">IN 2</text>
  <text x="22.5px" style="fill:#000000; " font-family="ImpactLabel" y="170" id="text31" text-anchor="middle" text-rendering="geometricPrecision" font-size="10">IN 3</text>
  <text x="22.5px" style="fill:#000000; " font-family="ImpactLabel" y="220" id="text33" text-anchor="middle" text-rendering="geometricPrecision" font-size="10">IN 4</text>
  <text x="22.5px" style="fill:#000000; " font-family="ImpactLabel" y="270" id="text35" text-anchor="middle" text-rendering="geometricPrecision" font-size="10">IN 5</text>
  <text x="22.5px" style="fill:#000000; " font-family="ImpactLabel" y="320" id="text35" text-anchor="middle" text-rendering="geometricPrecision" font-size="10">IN 6</text>

  <text id="text7" x="67.5" font-size="10" y="70" font-family="ImpactLabel" text-anchor="middle" text-rendering="geometricPrecision" style="fill:#000000;">IN 7</text>
  <text id="text29" x="67.5" font-size="10" y="120" font-family="ImpactLabel" text-anchor="middle" text-rendering="geometricPrecision" style="fill:#000000; ">IN 8</text>
  <text x="67.5px" style="fill:#000000; " font-family="ImpactLabel" y="170" id="text31" text-anchor="middle" text-rendering="geometricPrecision" font-size="10">IN 9</text>
  <text x="67.5px" style="fill:#000000; " font-family="ImpactLabel" y="220" id="text33" text-anchor="middle" text-rendering="geometricPrecision" font-size="10">IN 10</text>
  <text x="67.5px" style="fill:#000000; " font-family="ImpactLabel" y="270" id="text35" text-anchor="middle" text-rendering="geometricPrecision" font-size="10">IN 11</text>
  <text x="67.5px" style="fill:#000000; " font-family="ImpactLabel" y="320" id="text35" text-anchor="middle" text-rendering="geometricPrecision" font-size="10">IN 12</text>

  <text id="text7" x="112.5" font-size="10" y="70" font-family="ImpactLabel" text-anchor="middle" text-rendering="geometricPrecision" style="fill:#000000;">KNOB 1</text>
  <text id="text29" x="112.5" font-size="10" y="120" font-family="ImpactLabel" text-anchor="middle" text-rendering="geometricPrecision" style="fill:#000000; ">KNOB 2</text>
  <text x="112.5px" style="fill:#000000; " font-family="ImpactLabel" y="170" id="text31" text-anchor="middle" text-rendering="geometricPrecision" font-size="10">KNOB 3</text>
  <text x="112.5px" style="fill:#000000; " font-family="ImpactLabel" y="220" id="text33" text-anchor="middle" text-rendering="geometricPrecision" font-size="10">KNOB 4</text>
  <text x="112.5px" style="fill:#000000; " font-family="ImpactLabel" y="270" id="text35" text-anchor="middle" text-rendering="geometricPrecision" font-size="10">KNOB 5</text>
  <text x="112.5px" style="fill:#000000; " font-family="ImpactLabel" y="320" id="text35" text-anchor="middle" text-rendering="geometricPrecision" font-size="10">KNOB 6</text>

  <text id="text7" x="157.5" font-size="10" y="70" font-family="ImpactLabel" text-anchor="middle" text-rendering="geometricPrecision" style="fill:#000000;">OUT 1</text>
  <text id="text29" x="157.5" font-size="10" y="120" font-family="ImpactLabel" text-anchor="middle" text-rendering="geometricPrecision" style="fill:#000000; ">OUT 2</text>
  <text x="157.5px" style="fill:#000000; " font-family="ImpactLabel" y="170" id="text31" text-anchor="middle" text-rendering="geometricPrecision" font-size="10">OUT 3</text>
  <text x="157.5px" style="fill:#000000; " font-family="ImpactLabel" y="220" id="text33" text-anchor="middle" text-rendering="geometricPrecision" font-size="10">OUT 4</text>
  <text x="157.5px" style="fill:#000000; " font-family="ImpactLabel" y="270" id="text35" text-anchor="middle" text-rendering="geometricPrecision" font-size="10">OUT 5</text>
  <text x="157.5px" style="fill:#000000; " font-family="ImpactLabel" y="320" id="text35" text-anchor="middle" text-rendering="geometricPrecision" font-size="10">OUT 6</text>
-->
  <g
     aria-label="PROGRAM"
     style="font-size:10px;font-family:ImpactLabel;text-anchor:middle;fill:#000000;text-rendering:geometricPrecision"
     id="text35">
    <path
       d="m 75.131328,373.24 h -6.33 v -12.22 h 6.33 z m -3.81,-5.62 q 0.08,0.04 0.13,0.04 0.06,0 0.18,-0.04 0.05,-0.01 0.4,0.01 0.35,0.02 0.72,-0.07 0.37,-0.09 0.68,-0.35 0.32,-0.26 0.32,-0.85 0,-0.59 -0.19,-0.92 -0.19,-0.33 -0.44,-0.48 -0.24,-0.16 -0.47,-0.19 -0.23,-0.04 -0.33,-0.04 -0.09,0 -0.32,0 -0.22,0 -0.48,0 -0.26,0 -0.47,0 -0.2,0 -0.25,0.02 -0.08,0.02 -0.14,0.11 -0.05,0.09 -0.05,0.18 0,0.03 -0.02,0.17 -0.01,0.13 -0.03,0.31 -0.01,0.18 -0.02,0.36 0,0.18 0,0.35 0,0.15 0,0.38 0.01,0.22 0.03,0.42 0.02,0.2 0.04,0.37 0.03,0.17 0.03,0.22 0,0.08 -0.03,0.25 -0.02,0.17 -0.05,0.38 -0.02,0.21 -0.05,0.41 -0.02,0.2 -0.04,0.28 -0.04,0.18 0.02,0.36 0.06,0.18 0.31,0.32 0.23,0.14 0.29,0.02 0.06,-0.13 0.09,-0.22 0,-0.08 -0.04,-0.19 -0.04,-0.11 -0.07,-0.17 -0.04,-0.04 -0.08,-0.2 -0.03,-0.16 -0.03,-0.31 0,-0.1 0,-0.25 0,-0.16 0.02,-0.34 0,-0.19 0.02,-0.42 0.03,0.01 0.1,0.03 0.04,0.02 0.1,0.04 0.06,0.01 0.12,0.01 z m -0.22,-1.27 q 0,-0.05 -0.01,-0.2 -0.01,-0.15 -0.02,-0.3 0,-0.15 -0.01,-0.28 0,-0.14 0.01,-0.17 0.03,-0.07 0.05,-0.05 0.03,0.01 0.07,0.01 0.06,0 0.17,0.03 0.12,0.02 0.2,0.02 h 0.52 q 0.04,0 0.15,0 0.11,-0.01 0.22,-0.01 0.12,0 0.24,0.01 0.12,0 0.19,0.04 0.14,0.08 0.25,0.23 0.12,0.15 0.12,0.55 0,0.19 -0.1,0.33 -0.09,0.13 -0.21,0.24 -0.12,0.11 -0.24,0.17 -0.12,0.05 -0.17,0.05 -0.06,0 -0.22,0 -0.15,0 -0.31,-0.03 -0.19,0 -0.4,-0.01 -0.04,0 -0.09,0.01 -0.03,0.03 -0.09,0.04 -0.05,0 -0.09,0.01 -0.19,0.06 -0.27,-0.06 0,-0.14 0.01,-0.26 0.01,-0.11 0.02,-0.2 0.01,-0.1 0.01,-0.17 z m 0.16,-0.77 q -0.03,0.01 0,0.16 0.04,0.15 0.04,0.23 0,0.09 0.01,0.2 0.02,0.1 -0.01,0.18 -0.04,0.1 -0.05,0.14 -0.02,0.04 -0.02,0.06 0.04,-0.01 0.1,-0.08 0.04,-0.04 0.08,-0.12 0.04,-0.08 0.07,-0.16 0.01,-0.19 -0.06,-0.42 -0.06,-0.24 -0.16,-0.19 z m 0.91,0.09 h -0.17 q -0.07,0 -0.11,0.02 -0.04,0.01 -0.02,0.02 0.1,0.06 0.22,0.01 0.05,-0.01 0.08,-0.05 z m 0.04,1.1 -0.31,-0.08 q 0.05,0.05 0.12,0.08 0.1,0.06 0.19,0 z m -0.96,1 0.07,0.18 q 0.04,0.07 0.06,0.14 0.02,0.06 0.02,0.1 0,0.03 0.01,0.18 0.01,0.14 0.01,0.3 v 0.42 l 0.03,-1.07 0.67,-0.1 q -0.19,0.03 -0.37,0 -0.14,-0.01 -0.29,-0.04 -0.14,-0.03 -0.21,-0.11 z m 2.7,-0.94 q 0.13,-0.29 0.12,-0.68 -0.01,-0.4 -0.12,-0.72 -0.06,-0.15 -0.15,-0.27 -0.08,-0.12 -0.16,-0.21 -0.09,-0.08 -0.22,-0.15 0.04,0.01 0.07,0.05 0.04,0.03 0.07,0.08 0.04,0.05 0.11,0.1 0.15,0.14 0.25,0.44 0.1,0.3 0.1,0.58 0.03,0.27 -0.09,0.63 -0.11,0.36 -0.26,0.55 -0.08,0.08 -0.2,0.17 -0.11,0.09 -0.24,0.15 -0.13,0.07 -0.28,0.17 0.3,-0.04 0.59,-0.33 0.3,-0.29 0.41,-0.56 z"
       style="font-size:10px;font-family:ImpactLabel;text-anchor:middle;fill:#000000;text-rendering:geometricPrecision"
       id="path964" />
    <path
       d="m 81.128359,373.24 h -6.32 v -12.22 h 6.32 z m -4.7,-8.51 q -0.08,0.05 -0.11,0.26 -0.03,0.21 -0.03,0.36 0,0.07 0,0.47 0,0.39 0.01,0.84 0.01,0.45 0.01,0.84 0,0.38 0,0.44 0,0.05 -0.01,0.26 -0.01,0.21 -0.01,0.45 0,0.24 0.01,0.46 0.01,0.22 0.05,0.3 0.07,0.13 0.07,0.14 0,0.01 0.12,0.05 0.12,0.03 0.23,-0.06 0.12,-0.1 0.14,-0.23 0.01,-0.12 -0.07,-0.29 -0.07,-0.17 -0.07,-0.25 0,-0.06 0.01,-0.18 0.02,-0.12 0.03,-0.25 0.01,-0.14 0.02,-0.25 0.01,-0.11 0.01,-0.16 -0.02,-0.1 -0.03,-0.25 -0.01,-0.15 0.05,-0.2 0.06,-0.03 0.32,-0.03 0.27,0 0.39,-0.04 0.15,-0.02 0.27,-0.08 0.13,-0.06 0.28,0.01 0.07,0.04 0.16,0.22 0.09,0.17 0.18,0.39 0.1,0.22 0.19,0.43 0.09,0.21 0.14,0.33 0.05,0.13 0.12,0.31 0.07,0.17 0.16,0.32 0.09,0.15 0.18,0.25 0.1,0.09 0.19,0.04 0.19,-0.09 0.22,-0.18 0.03,-0.1 -0.01,-0.25 -0.02,-0.05 -0.11,-0.17 -0.08,-0.13 -0.19,-0.28 -0.11,-0.16 -0.22,-0.31 -0.1,-0.16 -0.15,-0.31 -0.2,-0.55 -0.2,-0.63 0,-0.06 -0.02,-0.07 -0.01,-0.02 0.03,-0.05 0.01,-0.03 0.15,-0.13 0.15,-0.11 0.3,-0.3 0.16,-0.2 0.28,-0.41 0.13,-0.22 0.11,-0.44 -0.01,-0.42 -0.18,-0.7 -0.16,-0.28 -0.33,-0.41 -0.15,-0.15 -0.27,-0.21 -0.11,-0.07 -0.21,-0.08 -0.08,-0.04 -0.06,-0.05 0.02,-0.02 -0.06,0.01 -0.03,0.03 -0.23,0.04 -0.19,0 -0.41,0 -0.21,0 -0.44,0.01 -0.22,0 -0.3,0 -0.18,0 -0.43,0 -0.24,0 -0.28,0.02 z m 1.97,0.56 q 0.2,0 0.42,0.13 0.12,0.07 0.19,0.23 0.07,0.15 0.09,0.33 0.04,0.18 -0.06,0.37 -0.1,0.19 -0.24,0.31 -0.13,0.12 -0.34,0.16 -0.2,0.03 -0.43,0.02 -0.1,0 -0.25,-0.03 -0.14,-0.03 -0.27,-0.05 -0.13,-0.02 -0.23,-0.04 -0.09,-0.02 -0.12,-0.02 -0.02,0 -0.18,0.07 -0.16,0.07 -0.2,0.01 -0.04,-0.04 0,-0.17 0.04,-0.13 0.07,-0.18 0.04,-0.06 0.02,-0.09 -0.01,-0.03 -0.02,-0.13 0,-0.05 -0.02,-0.15 -0.01,-0.11 -0.02,-0.22 -0.01,-0.12 -0.02,-0.21 -0.01,-0.09 -0.01,-0.1 0,-0.11 0.02,-0.16 0.05,-0.06 0.21,0 0.07,0.04 0.1,0.03 0.04,-0.02 0.14,-0.02 0.08,0 0.17,-0.01 0.1,-0.02 0.19,-0.02 0.08,0 0.29,0.02 0.22,0.01 0.29,-0.02 0.03,-0.04 0.07,-0.04 0.04,-0.01 0.14,-0.02 z m -1.39,0.38 q -0.04,0.04 0.01,0.12 0.06,0.07 0.06,0.12 0,0.04 0.06,0.1 l 0.02,0.02 q -0.04,-0.06 -0.06,-0.13 -0.07,-0.12 0,-0.17 0.06,-0.02 0.2,-0.02 h 0.14 l -0.22,-0.04 q -0.08,-0.02 -0.15,-0.02 -0.06,0 -0.06,0.02 z m 0.07,0.54 q 0,0.06 -0.04,0.12 -0.01,0.04 -0.01,0.06 l 0.13,0.09 0.53,0.03 q -0.13,-0.01 -0.24,-0.05 -0.08,-0.03 -0.17,-0.06 -0.09,-0.03 -0.12,-0.07 -0.06,-0.09 -0.06,-0.09 z m 1.64,-1.8 q 0.26,0.15 0.48,0.3 0.19,0.15 0.35,0.34 0.17,0.18 0.22,0.41 0.09,0.45 0.03,0.93 -0.06,0.47 -0.26,0.64 -0.19,0.15 -0.33,0.28 -0.13,0.13 -0.13,0.17 0,0.04 0.08,0.22 0.08,0.18 0.21,0.4 0.13,0.25 0.3,0.56 -0.13,-0.3 -0.21,-0.54 -0.09,-0.22 -0.14,-0.4 -0.05,-0.19 -0.04,-0.24 0.01,-0.03 0.12,-0.15 0.11,-0.13 0.23,-0.31 0.13,-0.18 0.21,-0.41 0.09,-0.24 0.08,-0.48 -0.03,-0.25 -0.05,-0.46 -0.01,-0.21 -0.12,-0.41 -0.1,-0.21 -0.34,-0.41 -0.24,-0.2 -0.69,-0.44 z m 0.87,5.34 q -0.02,0.05 0.08,0.02 0.1,-0.04 0.19,-0.2 0.07,-0.13 0.07,-0.26 0,-0.07 -0.01,-0.12 l -0.04,0.22 q -0.02,0.08 -0.05,0.15 -0.02,0.07 -0.07,0.11 -0.09,0.05 -0.12,0.05 -0.02,0 -0.05,0.03 z m -2.62,-1.92 q 0,0.03 0.01,0.2 0.02,0.17 0.03,0.39 0.02,0.21 0.04,0.4 0.02,0.19 0.02,0.26 0.01,0.15 0,0.22 0,0.07 -0.07,0.15 -0.08,0.09 -0.08,0.1 0,0.01 -0.06,0.01 -0.06,0 -0.16,-0.03 -0.08,-0.03 -0.11,-0.05 0.08,0.08 0.15,0.15 0.17,0.12 0.23,0.04 0.04,-0.06 0.08,-0.21 0.05,-0.15 0.08,-0.34 0.03,-0.19 0.06,-0.38 0.03,-0.19 0.03,-0.33 -0.02,-0.13 -0.01,-0.23 0.01,-0.11 0.01,-0.19 0,-0.09 0.03,-0.16 l 0.09,0.05 q 0.15,0.07 0.23,0.06 0.1,-0.01 0.02,-0.1 -0.07,-0.09 -0.15,-0.09 -0.11,0 -0.21,-0.05 -0.09,-0.06 -0.19,-0.1 -0.08,-0.03 -0.08,0.08 0.01,0.1 0.01,0.15 z"
       style="font-size:10px;font-family:ImpactLabel;text-anchor:middle;fill:#000000;text-rendering:geometricPrecision"
       id="path966" />
    <path
       d="m 87.174453,373.24 h -6.32 v -12.22 h 6.32 z m -3.17,-7.9 q 0.28,0.03 0.49,0.22 0.22,0.18 0.37,0.45 0.15,0.26 0.23,0.58 0.08,0.32 0.08,0.63 0,0.31 -0.09,0.66 -0.08,0.34 -0.24,0.62 -0.16,0.27 -0.37,0.45 -0.21,0.18 -0.44,0.18 -0.24,0 -0.53,-0.1 -0.28,-0.11 -0.53,-0.35 -0.24,-0.25 -0.4,-0.64 -0.16,-0.4 -0.12,-0.98 0.02,-0.58 0.24,-0.92 0.23,-0.35 0.49,-0.53 0.27,-0.19 0.51,-0.24 0.25,-0.05 0.31,-0.03 z m 0.72,-0.31 q -0.24,-0.23 -0.41,-0.32 -0.17,-0.1 -0.09,0.06 0,0.03 -0.22,0.03 -0.21,0 -0.53,0.06 -0.31,0.06 -0.63,0.22 -0.32,0.15 -0.49,0.49 -0.2,0.34 -0.32,0.85 -0.11,0.5 -0.1,1.03 0.02,0.53 0.19,1.01 0.17,0.48 0.55,0.8 0.4,0.31 0.79,0.42 0.39,0.11 0.72,0.06 0.33,-0.06 0.58,-0.26 0.25,-0.2 0.39,-0.45 0.12,-0.26 0.23,-0.59 0.11,-0.34 0.17,-0.68 0.06,-0.35 0.05,-0.67 -0.01,-0.33 -0.07,-0.59 -0.3,-0.98 -0.81,-1.47 z m 1.59,2.98 q -0.04,0.04 -0.04,0.06 0,0.05 0.01,0.08 0.01,0.03 0.06,0.05 z m -1.33,-3.27 q -0.23,-0.13 -0.41,-0.22 -0.17,-0.09 -0.31,-0.13 -0.16,-0.05 -0.3,-0.05 l 0.37,0.12 q 0.03,0.01 0.2,0.12 0.18,0.1 0.38,0.25 0.21,0.15 0.39,0.34 0.19,0.19 0.27,0.4 0.08,0.21 0.14,0.49 0.07,0.27 0.11,0.57 0.05,0.3 0.07,0.59 0.02,0.28 -0.02,0.5 -0.07,0.46 -0.2,0.83 -0.12,0.37 -0.52,0.78 -0.21,0.2 -0.43,0.34 -0.21,0.13 -0.39,0.21 -0.22,0.1 -0.41,0.15 0.34,-0.09 0.65,-0.23 0.26,-0.12 0.53,-0.32 0.28,-0.21 0.45,-0.51 0.17,-0.3 0.25,-0.66 0.09,-0.37 0.13,-0.71 0.04,-0.34 0.03,-0.61 0,-0.27 -0.01,-0.41 -0.03,-0.1 -0.1,-0.34 -0.07,-0.25 -0.19,-0.53 -0.12,-0.29 -0.3,-0.55 -0.17,-0.27 -0.38,-0.42 z m -1.47,0.97 q -0.15,0.08 -0.29,0.2 -0.13,0.11 -0.25,0.28 -0.12,0.17 -0.19,0.39 -0.14,0.46 -0.07,0.98 0.07,0.51 0.21,0.81 0.08,0.15 0.2,0.26 0.12,0.11 0.24,0.17 0.13,0.06 0.23,0.09 0.1,0.03 0.13,0.01 0.03,-0.05 -0.08,-0.14 -0.1,-0.1 -0.22,-0.21 -0.06,-0.05 -0.15,-0.12 -0.08,-0.07 -0.17,-0.2 -0.08,-0.13 -0.15,-0.35 -0.06,-0.23 -0.07,-0.61 -0.05,-0.36 0.04,-0.66 0.1,-0.3 0.24,-0.49 0.16,-0.23 0.35,-0.41 z"
       style="font-size:10px;font-family:ImpactLabel;text-anchor:middle;fill:#000000;text-rendering:geometricPrecision"
       id="path968" />
    <path
       d="m 93.180547,373.24 h -6.34 v -12.22 h 6.34 z m -1.9,-6.5 q 0.09,-0.03 0.19,-0.18 0.11,-0.15 0.09,-0.33 0,-0.09 -0.07,-0.22 -0.06,-0.13 -0.16,-0.27 -0.1,-0.14 -0.21,-0.26 -0.11,-0.13 -0.19,-0.21 -0.18,-0.18 -0.49,-0.28 -0.3,-0.11 -0.71,-0.06 -0.19,0.04 -0.47,0.18 -0.27,0.13 -0.53,0.45 -0.26,0.31 -0.45,0.79 -0.18,0.48 -0.18,1.2 0,0.72 0.22,1.2 0.22,0.47 0.51,0.74 0.3,0.27 0.63,0.39 0.33,0.11 0.54,0.11 0.21,0 0.44,-0.1 0.24,-0.11 0.45,-0.26 0.21,-0.15 0.35,-0.28 0.15,-0.13 0.19,-0.18 0.03,-0.06 0.04,-0.21 0.01,-0.15 0.01,-0.3 0,-0.16 -0.01,-0.31 -0.01,-0.15 -0.01,-0.22 0,-0.15 0.02,-0.25 0.03,-0.1 0.04,-0.22 0.03,-0.11 -0.06,-0.2 -0.09,-0.1 -0.15,-0.18 -0.04,-0.03 -0.05,-0.05 -0.01,-0.03 -0.03,-0.07 -0.02,-0.03 -0.02,-0.04 -0.07,0.12 -0.13,0.19 -0.07,0.06 -0.18,0.12 -0.11,0.05 -0.25,0.05 -0.29,0 -0.46,-0.01 -0.16,-0.01 -0.23,0.19 -0.07,0.19 0.05,0.34 0.13,0.15 0.22,0.17 0.09,0.05 0.18,0.02 0.1,-0.04 0.18,-0.08 0.08,-0.03 0.08,-0.07 0.01,-0.04 0.08,0.04 0.08,0.07 0.17,0.2 0.1,0.13 0.03,0.42 -0.09,0.33 -0.3,0.52 -0.21,0.19 -0.65,0.15 -0.21,-0.01 -0.44,-0.15 -0.22,-0.15 -0.42,-0.36 -0.2,-0.21 -0.33,-0.47 -0.12,-0.26 -0.14,-0.55 -0.02,-0.29 0,-0.59 0.02,-0.31 0.08,-0.59 0.06,-0.28 0.16,-0.49 0.1,-0.22 0.27,-0.33 0.33,-0.22 0.6,-0.23 0.28,-0.01 0.48,0.05 0.22,0.08 0.35,0.28 0.14,0.2 0.23,0.29 0.09,0.11 0.05,0.27 -0.03,0.15 0.16,0.26 0.09,0.06 0.16,0.02 z m -1.26,-2.11 q 0,0.04 0.25,0.08 0.26,0.03 0.45,0.15 0.21,0.12 0.43,0.31 0.22,0.18 0.33,0.33 0.1,0.14 0.13,0.3 0.04,0.15 0.08,0.2 0,0.04 0,0.06 0.01,0.01 0.01,0.02 v 0.04 q -0.03,-0.23 -0.09,-0.43 -0.09,-0.19 -0.23,-0.39 -0.13,-0.21 -0.37,-0.37 -0.26,-0.16 -0.45,-0.22 -0.18,-0.07 -0.3,-0.08 -0.13,-0.01 -0.24,0 z m -1.09,2.95 q 0.01,0.46 0.13,0.74 0.13,0.28 0.27,0.46 0.14,0.17 0.25,0.23 0.12,0.06 0.15,0.06 0.04,0 0.16,-0.12 0.06,-0.07 0.13,-0.14 -0.07,-0.01 -0.14,-0.04 -0.07,-0.01 -0.15,-0.04 -0.08,-0.03 -0.15,-0.09 -0.16,-0.11 -0.31,-0.33 -0.15,-0.23 -0.18,-0.87 -0.02,-0.31 0.03,-0.57 0.06,-0.27 0.12,-0.46 0.07,-0.22 0.18,-0.41 -0.15,0.14 -0.26,0.36 -0.09,0.19 -0.18,0.48 -0.09,0.29 -0.05,0.74 z m 1.6,-0.56 h 0.6 q -0.12,0 -0.24,-0.01 -0.11,0 -0.22,-0.01 -0.11,-0.02 -0.14,0.02 z m 0.8,0.07 0.15,0.17 q 0.04,0.07 0.09,0.16 0.06,0.08 0.1,0.13 0.03,0.05 0.04,0.2 0.02,0.15 0.02,0.33 0,0.18 -0.02,0.34 -0.01,0.16 -0.01,0.27 0,0.19 -0.02,0.34 -0.01,0.15 -0.06,0.22 -0.04,0.04 -0.14,0.14 -0.09,0.09 -0.2,0.2 l -0.27,0.28 q 0.17,-0.12 0.32,-0.27 0.15,-0.12 0.27,-0.27 0.13,-0.16 0.18,-0.35 0.04,-0.18 0.04,-0.43 0,-0.25 -0.01,-0.47 -0.01,-0.23 -0.05,-0.4 -0.03,-0.17 -0.06,-0.2 -0.01,-0.04 -0.07,-0.12 -0.05,-0.08 -0.11,-0.15 -0.06,-0.08 -0.12,-0.13 -0.05,-0.05 -0.07,0.01 z"
       style="font-size:10px;font-family:ImpactLabel;text-anchor:middle;fill:#000000;text-rendering:geometricPrecision"
       id="path970" />
    <path
       d="m 99.116641,373.24 h -6.32 v -12.22 h 6.32 z m -4.7,-8.51 q -0.08,0.05 -0.11,0.26 -0.03,0.21 -0.03,0.36 0,0.07 0,0.47 0,0.39 0.01,0.84 0.01,0.45 0.01,0.84 0,0.38 0,0.44 0,0.05 -0.01,0.26 -0.01,0.21 -0.01,0.45 0,0.24 0.01,0.46 0.01,0.22 0.05,0.3 0.07,0.13 0.07,0.14 0,0.01 0.12,0.05 0.12,0.03 0.23,-0.06 0.12,-0.1 0.14,-0.23 0.01,-0.12 -0.07,-0.29 -0.07,-0.17 -0.07,-0.25 0,-0.06 0.01,-0.18 0.02,-0.12 0.03,-0.25 0.01,-0.14 0.02,-0.25 0.01,-0.11 0.01,-0.16 -0.02,-0.1 -0.03,-0.25 -0.01,-0.15 0.05,-0.2 0.06,-0.03 0.32,-0.03 0.27,0 0.39,-0.04 0.15,-0.02 0.27,-0.08 0.13,-0.06 0.28,0.01 0.07,0.04 0.16,0.22 0.09,0.17 0.18,0.39 0.1,0.22 0.19,0.43 0.09,0.21 0.14,0.33 0.05,0.13 0.12,0.31 0.07,0.17 0.16,0.32 0.09,0.15 0.18,0.25 0.1,0.09 0.19,0.04 0.19,-0.09 0.22,-0.18 0.03,-0.1 -0.01,-0.25 -0.02,-0.05 -0.11,-0.17 -0.08,-0.13 -0.19,-0.28 -0.11,-0.16 -0.22,-0.31 -0.1,-0.16 -0.15,-0.31 -0.2,-0.55 -0.2,-0.63 0,-0.06 -0.02,-0.07 -0.01,-0.02 0.03,-0.05 0.01,-0.03 0.15,-0.13 0.15,-0.11 0.3,-0.3 0.16,-0.2 0.28,-0.41 0.13,-0.22 0.11,-0.44 -0.01,-0.42 -0.18,-0.7 -0.16,-0.28 -0.33,-0.41 -0.15,-0.15 -0.27,-0.21 -0.11,-0.07 -0.21,-0.08 -0.08,-0.04 -0.06,-0.05 0.02,-0.02 -0.06,0.01 -0.03,0.03 -0.23,0.04 -0.19,0 -0.41,0 -0.21,0 -0.44,0.01 -0.22,0 -0.3,0 -0.18,0 -0.43,0 -0.24,0 -0.28,0.02 z m 1.97,0.56 q 0.2,0 0.42,0.13 0.12,0.07 0.19,0.23 0.07,0.15 0.09,0.33 0.04,0.18 -0.06,0.37 -0.1,0.19 -0.24,0.31 -0.13,0.12 -0.34,0.16 -0.2,0.03 -0.43,0.02 -0.1,0 -0.25,-0.03 -0.14,-0.03 -0.27,-0.05 -0.13,-0.02 -0.23,-0.04 -0.09,-0.02 -0.12,-0.02 -0.02,0 -0.18,0.07 -0.16,0.07 -0.2,0.01 -0.04,-0.04 0,-0.17 0.04,-0.13 0.07,-0.18 0.04,-0.06 0.02,-0.09 -0.01,-0.03 -0.02,-0.13 0,-0.05 -0.02,-0.15 -0.01,-0.11 -0.02,-0.22 -0.01,-0.12 -0.02,-0.21 -0.01,-0.09 -0.01,-0.1 0,-0.11 0.02,-0.16 0.05,-0.06 0.21,0 0.07,0.04 0.1,0.03 0.04,-0.02 0.14,-0.02 0.08,0 0.17,-0.01 0.1,-0.02 0.19,-0.02 0.08,0 0.29,0.02 0.22,0.01 0.29,-0.02 0.03,-0.04 0.07,-0.04 0.04,-0.01 0.14,-0.02 z m -1.39,0.38 q -0.04,0.04 0.01,0.12 0.06,0.07 0.06,0.12 0,0.04 0.06,0.1 l 0.02,0.02 q -0.04,-0.06 -0.06,-0.13 -0.07,-0.12 0,-0.17 0.06,-0.02 0.2,-0.02 h 0.14 l -0.22,-0.04 q -0.08,-0.02 -0.15,-0.02 -0.06,0 -0.06,0.02 z m 0.07,0.54 q 0,0.06 -0.04,0.12 -0.01,0.04 -0.01,0.06 l 0.13,0.09 0.53,0.03 q -0.13,-0.01 -0.24,-0.05 -0.08,-0.03 -0.17,-0.06 -0.09,-0.03 -0.12,-0.07 -0.06,-0.09 -0.06,-0.09 z m 1.64,-1.8 q 0.26,0.15 0.48,0.3 0.19,0.15 0.35,0.34 0.17,0.18 0.22,0.41 0.09,0.45 0.03,0.93 -0.06,0.47 -0.26,0.64 -0.19,0.15 -0.33,0.28 -0.13,0.13 -0.13,0.17 0,0.04 0.08,0.22 0.08,0.18 0.21,0.4 0.13,0.25 0.3,0.56 -0.13,-0.3 -0.21,-0.54 -0.09,-0.22 -0.14,-0.4 -0.05,-0.19 -0.04,-0.24 0.01,-0.03 0.12,-0.15 0.11,-0.13 0.23,-0.31 0.13,-0.18 0.21,-0.41 0.09,-0.24 0.08,-0.48 -0.03,-0.25 -0.05,-0.46 -0.01,-0.21 -0.12,-0.41 -0.1,-0.21 -0.34,-0.41 -0.24,-0.2 -0.69,-0.44 z m 0.87,5.34 q -0.02,0.05 0.08,0.02 0.1,-0.04 0.19,-0.2 0.07,-0.13 0.07,-0.26 0,-0.07 -0.01,-0.12 l -0.04,0.22 q -0.02,0.08 -0.05,0.15 -0.02,0.07 -0.07,0.11 -0.09,0.05 -0.12,0.05 -0.02,0 -0.05,0.03 z m -2.62,-1.92 q 0,0.03 0.01,0.2 0.02,0.17 0.03,0.39 0.02,0.21 0.04,0.4 0.02,0.19 0.02,0.26 0.01,0.15 0,0.22 0,0.07 -0.07,0.15 -0.08,0.09 -0.08,0.1 0,0.01 -0.06,0.01 -0.06,0 -0.16,-0.03 -0.08,-0.03 -0.11,-0.05 0.08,0.08 0.15,0.15 0.17,0.12 0.23,0.04 0.04,-0.06 0.08,-0.21 0.05,-0.15 0.08,-0.34 0.03,-0.19 0.06,-0.38 0.03,-0.19 0.03,-0.33 -0.02,-0.13 -0.01,-0.23 0.01,-0.11 0.01,-0.19 0,-0.09 0.03,-0.16 l 0.09,0.05 q 0.15,0.07 0.23,0.06 0.1,-0.01 0.02,-0.1 -0.07,-0.09 -0.15,-0.09 -0.11,0 -0.21,-0.05 -0.09,-0.06 -0.19,-0.1 -0.08,-0.03 -0.08,0.08 0.01,0.1 0.01,0.15 z"
       style="font-size:10px;font-family:ImpactLabel;text-anchor:middle;fill:#000000;text-rendering:geometricPrecision"
       id="path972" />
    <path
       d="m 105.00273,373.24 h -6.309996 v -12.22 h 6.309996 z m -4.78,-3.51 q 0.06,0.02 0.13,0.07 0.08,0.05 0.16,-0.09 0.08,-0.12 0.13,-0.3 0.06,-0.19 0.07,-0.27 0.03,-0.1 0,-0.17 -0.02,-0.08 0.06,-0.1 0.09,-0.02 0.13,0.07 0.05,0.09 0.17,0.09 0.11,0 0.25,-0.05 0.14,-0.06 0.46,-0.06 0.33,0 0.47,0.03 0.15,0.03 0.27,-0.04 0.12,-0.06 0.23,-0.14 0.12,-0.08 0.17,-0.04 0.01,0.01 0.06,0.1 0.06,0.08 0.1,0.17 0.05,0.08 0.09,0.18 0.05,0.1 0.05,0.15 0.03,0.1 0.09,0.26 0.06,0.16 0.25,0.18 0.2,0.04 0.26,-0.02 0.07,-0.06 0.09,-0.22 0.05,-0.13 -0.08,-0.24 -0.13,-0.12 -0.18,-0.25 -0.03,-0.06 -0.13,-0.3 -0.09,-0.24 -0.21,-0.52 -0.12,-0.29 -0.23,-0.57 -0.1,-0.29 -0.16,-0.44 -0.05,-0.17 -0.16,-0.42 -0.1,-0.26 -0.21,-0.5 -0.1,-0.25 -0.19,-0.45 -0.08,-0.21 -0.1,-0.27 -0.03,-0.05 -0.04,-0.17 -0.01,-0.12 -0.04,-0.25 -0.03,-0.13 -0.07,-0.25 -0.03,-0.12 -0.09,-0.18 -0.06,-0.05 -0.13,0 -0.07,0.05 -0.13,0.13 -0.06,0.07 -0.11,0.16 -0.04,0.08 -0.06,0.14 -0.01,0.12 0.03,0.21 0.04,0.09 0.04,0.16 0,0.06 -0.06,0.15 -0.06,0.08 -0.1,0.19 -0.04,0.09 -0.06,0.18 -0.01,0.08 -0.01,0.15 0,0.08 -0.18,0.43 -0.18,0.35 -0.31,0.73 -0.12,0.35 -0.13,0.48 -0.01,0.13 -0.04,0.23 -0.01,0.08 -0.07,0.25 -0.05,0.17 -0.14,0.31 -0.04,0.1 -0.14,0.26 -0.09,0.16 -0.17,0.35 -0.08,0.18 -0.1,0.33 -0.02,0.15 0.07,0.17 z m 2.49,-2.08 q 0.09,0.17 0.11,0.35 0.03,0.17 -0.01,0.31 -0.01,0.06 -0.08,0.07 -0.07,0.01 -0.18,-0.01 -0.1,-0.02 -0.22,-0.05 -0.11,-0.03 -0.18,-0.03 -0.3,0 -0.41,-0.05 -0.04,-0.04 -0.13,0.01 -0.09,0.04 -0.28,0.1 -0.2,0.07 -0.27,0.06 -0.07,-0.02 -0.14,-0.05 -0.04,-0.01 -0.01,-0.08 0.03,-0.08 0.09,-0.17 0.06,-0.09 0.12,-0.19 0.06,-0.11 0.08,-0.2 0.02,-0.09 0.09,-0.29 0.08,-0.21 0.16,-0.42 0.09,-0.22 0.15,-0.38 0.06,-0.17 0.06,-0.18 0,-0.04 -0.06,-0.07 -0.05,-0.04 -0.1,-0.07 -0.03,-0.01 0.04,-0.08 0.07,-0.07 0.13,-0.15 0.07,-0.1 0.09,-0.16 0.02,-0.06 0.11,-0.03 0.04,0.02 0.16,0.26 0.12,0.24 0.26,0.55 0.15,0.31 0.27,0.6 0.12,0.28 0.15,0.35 z m -1.23,0.13 0.07,-0.16 q 0.04,-0.08 0.07,-0.15 0.03,-0.07 0.04,-0.11 0.06,-0.08 0.07,-0.2 0.01,-0.08 0.04,-0.18 -0.05,0.04 -0.11,0.18 -0.05,0.13 -0.08,0.28 -0.06,0.18 -0.1,0.34 z m 0.51,0.36 q -0.02,-0.07 -0.06,-0.15 -0.04,-0.08 -0.11,-0.06 -0.05,0.02 -0.12,0.02 h -0.08 z m -0.93,1.08 1.39,-0.05 q -0.12,-0.03 -0.34,-0.02 -0.22,0 -0.46,0.02 -0.29,0.01 -0.59,0.05 z m -0.07,0.08 q -0.04,0.1 -0.06,0.17 -0.07,0.17 -0.12,0.23 -0.04,0.03 -0.07,0.06 -0.03,0.02 -0.04,0.06 -0.03,0.03 -0.03,0.06 0.13,-0.11 0.19,-0.19 0.15,-0.21 0.13,-0.39 z m 2.97,-0.56 q 0.03,0.04 -0.02,-0.1 -0.05,-0.14 -0.15,-0.38 -0.09,-0.24 -0.23,-0.58 -0.13,-0.35 -0.27,-0.71 -0.34,-0.85 -0.8,-1.93 0.39,1.02 0.7,1.82 0.15,0.36 0.28,0.69 0.13,0.33 0.23,0.59 0.1,0.25 0.16,0.42 0.06,0.17 0.1,0.18 z"
       style="font-size:10px;font-family:ImpactLabel;text-anchor:middle;fill:#000000;text-rendering:geometricPrecision"
       id="path974" />
    <path
       d="m 110.93445,373.24 h -6.32 v -12.22 h 6.32 z m -1.45,-8.13 q -0.1,0.02 -0.22,0.15 -0.11,0.12 -0.23,0.3 -0.11,0.18 -0.22,0.39 -0.11,0.2 -0.22,0.33 -0.1,0.15 -0.23,0.39 -0.12,0.24 -0.25,0.48 -0.13,0.23 -0.28,0.44 -0.14,0.21 -0.27,0.29 -0.14,0.1 -0.22,0.01 -0.08,-0.09 -0.13,-0.23 -0.05,-0.14 -0.08,-0.28 -0.02,-0.15 -0.03,-0.18 -0.04,-0.06 -0.15,-0.25 -0.11,-0.19 -0.32,-0.38 -0.1,-0.11 -0.27,-0.33 -0.17,-0.23 -0.34,-0.46 -0.17,-0.23 -0.32,-0.39 -0.14,-0.16 -0.19,-0.1 -0.06,0.05 -0.04,0.16 0.02,0.1 0.07,0.22 0.05,0.11 0.1,0.21 0.06,0.1 0.06,0.14 0,0.04 -0.01,0.15 -0.01,0.11 -0.03,0.26 -0.02,0.14 -0.03,0.28 -0.01,0.14 -0.04,0.21 -0.02,0.07 -0.03,0.44 -0.01,0.37 -0.03,0.8 -0.01,0.42 -0.02,0.78 0,0.36 0,0.41 -0.02,0.1 -0.01,0.15 0.02,0.05 0.25,0.12 0.11,0.04 0.2,-0.02 0.1,-0.07 0.16,-0.18 0.06,-0.11 0.11,-0.21 0.05,-0.1 0.06,-0.16 0,-0.04 0,-0.34 0.01,-0.31 0,-0.65 0,-0.35 -0.02,-0.63 -0.02,-0.28 -0.05,-0.28 -0.09,0.01 -0.15,0.19 -0.06,0.18 -0.13,0.31 -0.04,0.08 -0.03,0.34 0.01,0.25 0.01,0.54 0,0.29 0,0.53 0,0.24 -0.04,0.25 -0.02,0.01 -0.04,-0.31 -0.02,-0.33 -0.05,-0.73 -0.02,-0.4 -0.03,-0.76 0,-0.36 -0.01,-0.45 -0.04,-0.15 -0.04,-0.41 0,-0.26 0.02,-0.37 0.03,-0.09 0.12,-0.11 0.09,-0.02 0.18,0.02 0.04,0.01 0.14,0.15 0.11,0.14 0.22,0.33 0.12,0.18 0.24,0.39 0.12,0.2 0.22,0.33 0.2,0.29 0.38,0.64 0.19,0.34 0.31,0.44 0.12,0.07 0.26,-0.02 0.15,-0.1 0.21,-0.09 0.05,0.01 0.02,0.15 -0.02,0.13 0.03,0.13 0.05,0 0.07,-0.05 0.03,-0.05 0.08,-0.14 0.03,-0.04 0.09,-0.12 0.06,-0.09 0.13,-0.17 l 0.17,-0.22 -0.24,0.3 0.42,-0.8 -0.6,0.89 0.57,-1.07 -0.09,-0.06 v -0.32 q 0,-0.08 0.02,-0.2 0.03,-0.13 0.06,-0.17 0.04,-0.03 0.17,-0.2 0.13,-0.18 0.18,-0.18 0.06,-0.03 0.08,0.05 0.03,0.07 0.09,0.21 0.05,0.15 0.08,0.55 0.04,0.39 0,0.89 0,0.27 -0.02,0.56 -0.01,0.28 -0.01,0.54 0,0.26 0,0.44 0,0.18 0.03,0.25 0.01,0.08 0.08,0.11 0.08,0.02 0.14,0.02 0.06,0 0.12,0 0.07,0 0.08,0.02 0.04,0.06 0.04,0.09 0,0.03 0.05,-0.01 0.02,0 0.13,-0.13 0.02,-0.07 0.08,-0.12 -0.02,0.01 -0.03,0.05 -0.04,0.07 -0.05,0.08 -0.04,0.02 -0.1,0.02 h -0.03 v -0.07 q 0,-0.03 0.03,-0.21 0.04,-0.12 -0.06,-0.35 -0.09,-0.23 -0.09,-0.42 0,-0.1 0.01,-0.57 0.01,-0.48 0.01,-1.03 0.01,-0.55 0.02,-1.02 0.02,-0.48 0.02,-0.57 0,-0.15 0.12,-0.25 0.05,-0.05 0.12,-0.08 0.07,-0.05 0.02,-0.08 -0.05,-0.03 -0.15,-0.03 -0.09,0 -0.21,0.01 -0.12,0.01 -0.2,0.03 z m -1.95,1.95 q 0.03,0.02 -0.01,-0.03 -0.03,-0.06 -0.06,-0.12 -0.05,-0.07 -0.12,-0.18 0,0.08 0.03,0.15 0.04,0.18 0.16,0.18 z m -0.01,-0.36 q -0.22,-0.34 -0.41,-0.64 -0.16,-0.25 -0.29,-0.47 -0.13,-0.23 -0.17,-0.3 -0.02,-0.06 0.08,0.18 0.11,0.24 0.27,0.54 0.16,0.3 0.31,0.54 0.15,0.23 0.21,0.15 z m 2.58,-1.59 q -0.03,1.13 -0.05,2.04 0,0.38 0,0.76 0,0.38 0.01,0.69 0.01,0.3 0.02,0.51 0.01,0.2 0.04,0.25 0.02,0.05 0.03,-0.13 0.01,-0.18 0.01,-0.47 0,-0.29 -0.01,-0.68 -0.01,-0.39 -0.01,-0.79 -0.02,-0.95 -0.04,-2.18 z"
       style="font-size:10px;font-family:ImpactLabel;text-anchor:middle;fill:#000000;text-rendering:geometricPrecision"
       id="path976" />
  </g>
  <path
     style="stroke:#000000;stroke-width:0.75"
     d="M 112.5,43 V 27"
     id="SvgjsLine1007" />
  <path
     style="stroke:#000000;stroke-width:0.75"
     d="m 112.5,43 4.36723,-15.392443"
     id="SvgjsLine1008" />
  <path
     style="stroke:#000000;stroke-width:0.75"
     d="m 112.5,43 8.40279,-13.615911"
     id="SvgjsLine1009" />
  <path
     style="stroke:#000000;stroke-width:0.75"
     d="M 112.5,43 124.30021,32.194675"
     id="SvgjsLine1010" />
  <path
     style="stroke:#000000;stroke-width:0.75"
     d="m 112.5,43 14.30146,-7.174133"
     id="SvgjsLine1011" />
  <path
     style="stroke:#000000;stroke-width:0.75"
     d="m 112.5,43 15.7166,-2.9981"
     id="SvgjsLine1012" />
  <path
     style="stroke:#000000;stroke-width:0.75"
     d="m 112.5,43 15.93814,1.405621"
     id="SvgjsLine1013" />
  <path
     style="stroke:#000000;stroke-width:0.75"
     d="m 112.5,43 14.94926,5.702591"
     id="SvgjsLine1014" />
  <path
     style="stroke:#000000;stroke-width:0.75"
     d="m 112.5,43 12.82507,9.566479"
     id="SvgjsLine1015" />
  <path
     style="stroke:#000000;stroke-width:0.75"
     d="m 112.5,43 9.40456,12.944271"
     id="SvgjsLine1016" />
  <path
     style="stroke:#000000;stroke-width:0.75"
     d="M 112.5,43 108.13277,27.607557"
     id="SvgjsLine1017" />
  <path
     style="stroke:#000000;stroke-width:0.75"
     d="M 112.5,43 104.09721,29.384089"
     id="SvgjsLine1018" />
  <path
     style="stroke:#000000;stroke-width:0.75"
     d="M 112.5,43 100.69979,32.194675"
     id="SvgjsLine1019" />
  <path
     style="stroke:#000000;stroke-width:0.75"
     d="M 112.5,43 98.19854,35.825867"
     id="SvgjsLine1020" />
  <path
     style="stroke:#000000;stroke-width:0.75"
     d="M 112.5,43 96.626167,40.994667"
     id="SvgjsLine1021" />
  <path
     style="stroke:#000000;stroke-width:0.75"
     d="M 112.5,43 96.681572,45.40361"
     id="SvgjsLine1022" />
  <path
     style="stroke:#000000;stroke-width:0.75"
     d="M 112.5,43 97.938301,49.630009"
     id="SvgjsLine1023" />
  <path
     style="stroke:#000000;stroke-width:0.75"
     d="M 112.5,43 100.30092,53.352894"
     id="SvgjsLine1024" />
  <path
     style="stroke:#000000;stroke-width:0.75"
     d="m 112.5,43 -8.91001,13.289536"
     id="SvgjsLine1025" />
  <path
     style="fill:#aaaaaa;stroke:#111111;stroke-width:0.75"
     d="m 125.5,43 a 13,13 0 0 1 -13,13 13,13 0 0 1 -13,-13 13,13 0 0 1 13,-13 13,13 0 0 1 13,13 z"
     id="SvgjsCircle1026" />
  <path
     style="stroke:#000000;stroke-width:0.75"
     d="M 112.5,93 V 77"
     id="SvgjsLine1027" />
  <path
     style="stroke:#000000;stroke-width:0.75"
     d="m 112.5,93 4.36723,-15.392441"
     id="SvgjsLine1028" />
  <path
     style="stroke:#000000;stroke-width:0.75"
     d="m 112.5,93 8.40279,-13.615913"
     id="SvgjsLine1029" />
  <path
     style="stroke:#000000;stroke-width:0.75"
     d="M 112.5,93 124.30021,82.194672"
     id="SvgjsLine1030" />
  <path
     style="stroke:#000000;stroke-width:0.75"
     d="m 112.5,93 14.30146,-7.174133"
     id="SvgjsLine1031" />
  <path
     style="stroke:#000000;stroke-width:0.75"
     d="m 112.5,93 15.7166,-2.9981"
     id="SvgjsLine1032" />
  <path
     style="stroke:#000000;stroke-width:0.75"
     d="m 112.5,93 15.93814,1.405617"
     id="SvgjsLine1033" />
  <path
     style="stroke:#000000;stroke-width:0.75"
     d="m 112.5,93 14.94926,5.702591"
     id="SvgjsLine1034" />
  <path
     style="stroke:#000000;stroke-width:0.75"
     d="m 112.5,93 12.82507,9.56648"
     id="SvgjsLine1035" />
  <path
     style="stroke:#000000;stroke-width:0.75"
     d="m 112.5,93 9.40456,12.94427"
     id="SvgjsLine1036" />
  <path
     style="stroke:#000000;stroke-width:0.75"
     d="M 112.5,93 108.13277,77.607559"
     id="SvgjsLine1037" />
  <path
     style="stroke:#000000;stroke-width:0.75"
     d="M 112.5,93 104.09721,79.384087"
     id="SvgjsLine1038" />
  <path
     style="stroke:#000000;stroke-width:0.75"
     d="M 112.5,93 100.69979,82.194672"
     id="SvgjsLine1039" />
  <path
     style="stroke:#000000;stroke-width:0.75"
     d="M 112.5,93 98.19854,85.825867"
     id="SvgjsLine1040" />
  <path
     style="stroke:#000000;stroke-width:0.75"
     d="M 112.5,93 96.626167,90.994667"
     id="SvgjsLine1041" />
  <path
     style="stroke:#000000;stroke-width:0.75"
     d="M 112.5,93 96.681572,95.40361"
     id="SvgjsLine1042" />
  <path
     style="stroke:#000000;stroke-width:0.75"
     d="M 112.5,93 97.938301,99.630013"
     id="SvgjsLine1043" />
  <path
     style="stroke:#000000;stroke-width:0.75"
     d="m 112.5,93 -12.19908,10.3529"
     id="SvgjsLine1044" />
  <path
     style="stroke:#000000;stroke-width:0.75"
     d="m 112.5,93 -8.91001,13.28954"
     id="SvgjsLine1045" />
  <path
     style="fill:#aaaaaa;stroke:#111111;stroke-width:0.75"
     d="m 125.5,93 a 13,13 0 0 1 -13,13 13,13 0 0 1 -13,-13 13,13 0 0 1 13,-13 13,13 0 0 1 13,13 z"
     id="SvgjsCircle1046" />
  <path
     style="stroke:#000000;stroke-width:0.75"
     d="M 112.5,143 V 127"
     id="SvgjsLine1047" />
  <path
     style="stroke:#000000;stroke-width:0.75"
     d="m 112.5,143 4.36723,-15.39244"
     id="SvgjsLine1048" />
  <path
     style="stroke:#000000;stroke-width:0.75"
     d="m 112.5,143 8.40279,-13.61591"
     id="SvgjsLine1049" />
  <path
     style="stroke:#000000;stroke-width:0.75"
     d="m 112.5,143 11.80021,-10.80533"
     id="SvgjsLine1050" />
  <path
     style="stroke:#000000;stroke-width:0.75"
     d="m 112.5,143 14.30146,-7.17413"
     id="SvgjsLine1051" />
  <path
     style="stroke:#000000;stroke-width:0.75"
     d="m 112.5,143 15.7166,-2.99811"
     id="SvgjsLine1052" />
  <path
     style="stroke:#000000;stroke-width:0.75"
     d="m 112.5,143 15.93814,1.40562"
     id="SvgjsLine1053" />
  <path
     style="stroke:#000000;stroke-width:0.75"
     d="m 112.5,143 14.94926,5.70259"
     id="SvgjsLine1054" />
  <path
     style="stroke:#000000;stroke-width:0.75"
     d="m 112.5,143 12.82507,9.56648"
     id="SvgjsLine1055" />
  <path
     style="stroke:#000000;stroke-width:0.75"
     d="m 112.5,143 9.40456,12.94427"
     id="SvgjsLine1056" />
  <path
     style="stroke:#000000;stroke-width:0.75"
     d="m 112.5,143 -4.36723,-15.39244"
     id="SvgjsLine1057" />
  <path
     style="stroke:#000000;stroke-width:0.75"
     d="m 112.5,143 -8.40279,-13.61591"
     id="SvgjsLine1058" />
  <path
     style="stroke:#000000;stroke-width:0.75"
     d="M 112.5,143 100.69979,132.19467"
     id="SvgjsLine1059" />
  <path
     style="stroke:#000000;stroke-width:0.75"
     d="M 112.5,143 98.19854,135.82587"
     id="SvgjsLine1060" />
  <path
     style="stroke:#000000;stroke-width:0.75"
     d="M 112.5,143 96.626167,140.99467"
     id="SvgjsLine1061" />
  <path
     style="stroke:#000000;stroke-width:0.75"
     d="m 112.5,143 -15.818428,2.40361"
     id="SvgjsLine1062" />
  <path
     style="stroke:#000000;stroke-width:0.75"
     d="m 112.5,143 -14.561699,6.63"
     id="SvgjsLine1063" />
  <path
     style="stroke:#000000;stroke-width:0.75"
     d="m 112.5,143 -12.19908,10.35289"
     id="SvgjsLine1064" />
  <path
     style="stroke:#000000;stroke-width:0.75"
     d="m 112.5,143 -8.91001,13.28954"
     id="SvgjsLine1065" />
  <path
     style="fill:#aaaaaa;stroke:#111111;stroke-width:0.75"
     d="m 125.5,143 a 13,13 0 0 1 -13,13 13,13 0 0 1 -13,-13 13,13 0 0 1 13,-13 13,13 0 0 1 13,13 z"
     id="SvgjsCircle1066" />
  <path
     style="stroke:#000000;stroke-width:0.75"
     d="M 112.5,193 V 177"
     id="SvgjsLine1067" />
  <path
     style="stroke:#000000;stroke-width:0.75"
     d="m 112.5,193 4.36723,-15.39244"
     id="SvgjsLine1068" />
  <path
     style="stroke:#000000;stroke-width:0.75"
     d="m 112.5,193 8.40279,-13.61591"
     id="SvgjsLine1069" />
  <path
     style="stroke:#000000;stroke-width:0.75"
     d="m 112.5,193 11.80021,-10.80533"
     id="SvgjsLine1070" />
  <path
     style="stroke:#000000;stroke-width:0.75"
     d="m 112.5,193 14.30146,-7.17413"
     id="SvgjsLine1071" />
  <path
     style="stroke:#000000;stroke-width:0.75"
     d="m 112.5,193 15.7166,-2.99811"
     id="SvgjsLine1072" />
  <path
     style="stroke:#000000;stroke-width:0.75"
     d="m 112.5,193 15.93814,1.40562"
     id="SvgjsLine1073" />
  <path
     style="stroke:#000000;stroke-width:0.75"
     d="m 112.5,193 14.94926,5.70259"
     id="SvgjsLine1074" />
  <path
     style="stroke:#000000;stroke-width:0.75"
     d="m 112.5,193 12.82507,9.56648"
     id="SvgjsLine1075" />
  <path
     style="stroke:#000000;stroke-width:0.75"
     d="m 112.5,193 9.40456,12.94427"
     id="SvgjsLine1076" />
  <path
     style="stroke:#000000;stroke-width:0.75"
     d="m 112.5,193 -4.36723,-15.39244"
     id="SvgjsLine1077" />
  <path
     style="stroke:#000000;stroke-width:0.75"
     d="m 112.5,193 -8.40279,-13.61591"
     id="SvgjsLine1078" />
  <path
     style="stroke:#000000;stroke-width:0.75"
     d="M 112.5,193 100.69979,182.19467"
     id="SvgjsLine1079" />
  <path
     style="stroke:#000000;stroke-width:0.75"
     d="M 112.5,193 98.19854,185.82587"
     id="SvgjsLine1080" />
  <path
     style="stroke:#000000;stroke-width:0.75"
     d="M 112.5,193 96.626167,190.99467"
     id="SvgjsLine1081" />
  <path
     style="stroke:#000000;stroke-width:0.75"
     d="m 112.5,193 -15.818428,2.40361"
     id="SvgjsLine1082" />
  <path
     style="stroke:#000000;stroke-width:0.75"
     d="m 112.5,193 -14.561699,6.63"
     id="SvgjsLine1083" />
  <path
     style="stroke:#000000;stroke-width:0.75"
     d="m 112.5,193 -12.19908,10.35289"
     id="SvgjsLine1084" />
  <path
     style="stroke:#000000;stroke-width:0.75"
     d="m 112.5,193 -8.91001,13.28954"
     id="SvgjsLine1085" />
  <path
     style="fill:#aaaaaa;stroke:#111111;stroke-width:0.75"
     d="m 125.5,193 a 13,13 0 0 1 -13,13 13,13 0 0 1 -13,-13 13,13 0 0 1 13,-13 13,13 0 0 1 13,13 z"
     id="SvgjsCircle1086" />
  <path
     style="stroke:#000000;stroke-width:0.75"
     d="M 112.5,243 V 227"
     id="SvgjsLine1087" />
  <path
     style="stroke:#000000;stroke-width:0.75"
     d="m 112.5,243 4.36723,-15.39244"
     id="SvgjsLine1088" />
  <path
     style="stroke:#000000;stroke-width:0.75"
     d="m 112.5,243 8.40279,-13.61591"
     id="SvgjsLine1089" />
  <path
     style="stroke:#000000;stroke-width:0.75"
     d="m 112.5,243 11.80021,-10.80533"
     id="SvgjsLine1090" />
  <path
     style="stroke:#000000;stroke-width:0.75"
     d="m 112.5,243 14.30146,-7.17413"
     id="SvgjsLine1091" />
  <path
     style="stroke:#000000;stroke-width:0.75"
     d="m 112.5,243 15.7166,-2.99811"
     id="SvgjsLine1092" />
  <path
     style="stroke:#000000;stroke-width:0.75"
     d="m 112.5,243 15.93814,1.40562"
     id="SvgjsLine1093" />
  <path
     style="stroke:#000000;stroke-width:0.75"
     d="m 112.5,243 14.94926,5.70259"
     id="SvgjsLine1094" />
  <path
     style="stroke:#000000;stroke-width:0.75"
     d="m 112.5,243 12.82507,9.56648"
     id="SvgjsLine1095" />
  <path
     style="stroke:#000000;stroke-width:0.75"
     d="m 112.5,243 9.40456,12.94427"
     id="SvgjsLine1096" />
  <path
     style="stroke:#000000;stroke-width:0.75"
     d="m 112.5,243 -4.36723,-15.39244"
     id="SvgjsLine1097" />
  <path
     style="stroke:#000000;stroke-width:0.75"
     d="m 112.5,243 -8.40279,-13.61591"
     id="SvgjsLine1098" />
  <path
     style="stroke:#000000;stroke-width:0.75"
     d="M 112.5,243 100.69979,232.19467"
     id="SvgjsLine1099" />
  <path
     style="stroke:#000000;stroke-width:0.75"
     d="M 112.5,243 98.19854,235.82587"
     id="SvgjsLine1100" />
  <path
     style="stroke:#000000;stroke-width:0.75"
     d="M 112.5,243 96.626167,240.99467"
     id="SvgjsLine1101" />
  <path
     style="stroke:#000000;stroke-width:0.75"
     d="m 112.5,243 -15.818428,2.40361"
     id="SvgjsLine1102" />
  <path
     style="stroke:#000000;stroke-width:0.75"
     d="m 112.5,243 -14.561699,6.63"
     id="SvgjsLine1103" />
  <path
     style="stroke:#000000;stroke-width:0.75"
     d="m 112.5,243 -12.19908,10.35289"
     id="SvgjsLine1104" />
  <path
     style="stroke:#000000;stroke-width:0.75"
     d="m 112.5,243 -8.91001,13.28952"
     id="SvgjsLine1105" />
  <path
     style="fill:#aaaaaa;stroke:#111111;stroke-width:0.75"
     d="m 125.5,243 a 13,13 0 0 1 -13,13 13,13 0 0 1 -13,-13 13,13 0 0 1 13,-13 13,13 0 0 1 13,13 z"
     id="SvgjsCircle1106" />
  <path
     style="stroke:#000000;stroke-width:0.75"
     d="M 112.5,293 V 277"
     id="SvgjsLine1107" />
  <path
     style="stroke:#000000;stroke-width:0.75"
     d="m 112.5,293 4.36723,-15.39246"
     id="SvgjsLine1108" />
  <path
     style="stroke:#000000;stroke-width:0.75"
     d="m 112.5,293 8.40279,-13.61591"
     id="SvgjsLine1109" />
  <path
     style="stroke:#000000;stroke-width:0.75"
     d="m 112.5,293 11.80021,-10.80533"
     id="SvgjsLine1110" />
  <path
     style="stroke:#000000;stroke-width:0.75"
     d="m 112.5,293 14.30146,-7.17413"
     id="SvgjsLine1111" />
  <path
     style="stroke:#000000;stroke-width:0.75"
     d="m 112.5,293 15.7166,-2.99811"
     id="SvgjsLine1112" />
  <path
     style="stroke:#000000;stroke-width:0.75"
     d="m 112.5,293 15.93814,1.40561"
     id="SvgjsLine1113" />
  <path
     style="stroke:#000000;stroke-width:0.75"
     d="m 112.5,293 14.94926,5.70258"
     id="SvgjsLine1114" />
  <path
     style="stroke:#000000;stroke-width:0.75"
     d="m 112.5,293 12.82507,9.56647"
     id="SvgjsLine1115" />
  <path
     style="stroke:#000000;stroke-width:0.75"
     d="m 112.5,293 9.40456,12.94427"
     id="SvgjsLine1116" />
  <path
     style="stroke:#000000;stroke-width:0.75"
     d="m 112.5,293 -4.36723,-15.39246"
     id="SvgjsLine1117" />
  <path
     style="stroke:#000000;stroke-width:0.75"
     d="m 112.5,293 -8.40279,-13.61591"
     id="SvgjsLine1118" />
  <path
     style="stroke:#000000;stroke-width:0.75"
     d="M 112.5,293 100.69979,282.19467"
     id="SvgjsLine1119" />
  <path
     style="stroke:#000000;stroke-width:0.75"
     d="M 112.5,293 98.19854,285.82587"
     id="SvgjsLine1120" />
  <path
     style="stroke:#000000;stroke-width:0.75"
     d="M 112.5,293 96.626167,290.99466"
     id="SvgjsLine1121" />
  <path
     style="stroke:#000000;stroke-width:0.75"
     d="m 112.5,293 -15.818428,2.40359"
     id="SvgjsLine1122" />
  <path
     style="stroke:#000000;stroke-width:0.75"
     d="m 112.5,293 -14.561699,6.63"
     id="SvgjsLine1123" />
  <path
     style="stroke:#000000;stroke-width:0.75"
     d="m 112.5,293 -12.19908,10.35291"
     id="SvgjsLine1124" />
  <path
     style="stroke:#000000;stroke-width:0.75"
     d="m 112.5,293 -8.91001,13.28952"
     id="SvgjsLine1125" />
  <path
     style="fill:#aaaaaa;stroke:#111111;stroke-width:0.75"
     d="m 125.5,293 a 13,13 0 0 1 -13,13 13,13 0 0 1 -13,-13 13,13 0 0 1 13,-13 13,13 0 0 1 13,13 z"
     id="SvgjsCircle1126" />
  <path
     style="stroke:#000000;stroke-width:0.75"
     d="m 90,343 -9.404564,12.94427"
     id="SvgjsLine1127" />
  <path
     style="stroke:#000000;stroke-width:0.75"
     d="m 90,343 -15.216904,4.94427"
     id="SvgjsLine1128" />
  <path
     style="stroke:#000000;stroke-width:0.75"
     d="M 90,343 74.783096,338.05573"
     id="SvgjsLine1129" />
  <path
     style="stroke:#000000;stroke-width:0.75"
     d="M 90,343 80.595436,330.05573"
     id="SvgjsLine1130" />
  <path
     style="stroke:#000000;stroke-width:0.75"
     d="M 90,343 V 327"
     id="SvgjsLine1131" />
  <path
     style="stroke:#000000;stroke-width:0.75"
     d="m 90,343 9.404564,-12.94427"
     id="SvgjsLine1132" />
  <path
     style="stroke:#000000;stroke-width:0.75"
     d="m 90,343 15.2169,-4.94427"
     id="SvgjsLine1133" />
  <path
     style="stroke:#000000;stroke-width:0.75"
     d="m 90,343 15.2169,4.94427"
     id="SvgjsLine1134" />
  <path
     style="stroke:#000000;stroke-width:0.75"
     d="m 90,343 9.404564,12.94427"
     id="SvgjsLine1135" />
  <path
     style="fill:#aaaaaa;stroke:#111111;stroke-width:0.75"
     d="m 103,343 a 13,13 0 0 1 -13,13 13,13 0 0 1 -13,-13 13,13 0 0 1 13,-13 13,13 0 0 1 13,13 z"
     id="SvgjsCircle1136" />
</svg>
